<svg width="11" height="16" viewBox="0 0 11 16" fill="none" xmlns="http://www.w3.org/2000/svg">
<path d="M1.477 1.477C2.461 0.492 3.656 0 5.062 0C6.469 0 7.664 0.492 8.648 1.477C9.633 2.461 10.125 3.656 10.125 5.062C10.125 6.234 9.703 7.711 8.859 9.492C8.016 11.273 7.172 12.762 6.328 13.957L5.063 15.75C4.58766 15.0925 4.11863 14.4305 3.656 13.764C3.094 12.955 2.344 11.596 1.406 9.686C0.469 7.775 0 6.234 0 5.062C0 3.656 0.492 2.461 1.477 1.477ZM3.885 6.24C4.201 6.557 4.594 6.715 5.063 6.715C5.531 6.715 5.924 6.557 6.24 6.24C6.557 5.924 6.715 5.531 6.715 5.062C6.715 4.594 6.557 4.201 6.24 3.885C6.08673 3.72954 5.9032 3.60717 5.70075 3.52547C5.4983 3.44376 5.28124 3.40447 5.063 3.41C4.594 3.41 4.201 3.568 3.885 3.885C3.72954 4.03827 3.60717 4.2218 3.52547 4.42425C3.44376 4.6267 3.40447 4.84376 3.41 5.062C3.41 5.531 3.568 5.924 3.885 6.24Z" fill="#4ED401"/>
</svg>
