<svg width="16" height="16" viewBox="0 0 16 16" fill="none" xmlns="http://www.w3.org/2000/svg">
<path fill-rule="evenodd" clip-rule="evenodd" d="M7.952 4.876L8.029 4.879L8.106 4.884L8.182 4.891L8.257 4.899L8.332 4.91L8.406 4.922L8.479 4.936L8.552 4.952L8.624 4.97L8.696 4.989L8.767 5.01L8.837 5.033L8.906 5.057L8.975 5.083L9.042 5.111L9.109 5.14L9.175 5.171L9.24 5.203L9.304 5.237L9.368 5.273L9.43 5.31L9.491 5.348L9.552 5.388L9.611 5.429L9.669 5.471L9.727 5.515L9.783 5.56L9.838 5.607L9.892 5.655L9.944 5.704L9.996 5.754L10.046 5.806L10.095 5.858L10.143 5.912L10.19 5.967L10.235 6.023L10.279 6.081L10.321 6.139L10.362 6.198L10.402 6.259L10.44 6.32L10.477 6.382L10.513 6.446L10.547 6.51L10.579 6.575L10.61 6.641L10.639 6.708L10.667 6.775L10.693 6.844L10.717 6.913L10.74 6.983L10.761 7.054L10.78 7.126L10.798 7.198L10.814 7.271L10.828 7.344L10.84 7.418L10.851 7.493L10.859 7.568L10.866 7.644L10.871 7.721L10.874 7.798L10.875 7.875L10.874 7.952L10.871 8.029L10.866 8.106L10.859 8.182L10.851 8.257L10.84 8.332L10.828 8.406L10.814 8.479L10.798 8.552L10.78 8.624L10.761 8.696L10.74 8.767L10.717 8.837L10.693 8.906L10.667 8.975L10.639 9.042L10.61 9.109L10.579 9.175L10.547 9.24L10.513 9.304L10.477 9.368L10.44 9.43L10.402 9.491L10.362 9.552L10.321 9.611L10.279 9.669L10.235 9.727L10.19 9.783L10.143 9.838L10.095 9.892L10.046 9.944L9.996 9.996L9.944 10.046L9.892 10.095L9.838 10.143L9.783 10.19L9.727 10.235L9.669 10.279L9.611 10.321L9.552 10.362L9.491 10.402L9.43 10.44L9.368 10.477L9.304 10.513L9.24 10.547L9.175 10.579L9.109 10.61L9.042 10.639L8.975 10.667L8.906 10.693L8.837 10.717L8.767 10.74L8.696 10.761L8.624 10.78L8.552 10.798L8.479 10.814L8.406 10.828L8.332 10.84L8.257 10.851L8.182 10.859L8.106 10.866L8.029 10.871L7.952 10.874L7.875 10.875L7.798 10.874L7.721 10.871L7.644 10.866L7.568 10.859L7.493 10.851L7.418 10.84L7.344 10.828L7.271 10.814L7.198 10.798L7.126 10.78L7.054 10.761L6.983 10.74L6.913 10.717L6.844 10.693L6.775 10.667L6.708 10.639L6.641 10.61L6.575 10.579L6.51 10.547L6.446 10.513L6.382 10.477L6.32 10.44L6.259 10.402L6.198 10.362L6.139 10.321L6.081 10.279L6.023 10.235L5.967 10.19L5.912 10.143L5.858 10.095L5.806 10.046L5.754 9.996L5.704 9.944L5.655 9.892L5.607 9.838L5.56 9.783L5.515 9.727L5.471 9.669L5.429 9.611L5.388 9.552L5.348 9.491L5.31 9.43L5.273 9.368L5.237 9.304L5.203 9.24L5.171 9.175L5.14 9.109L5.111 9.042L5.083 8.975L5.057 8.906L5.033 8.837L5.01 8.767L4.989 8.696L4.97 8.624L4.952 8.552L4.936 8.479L4.922 8.406L4.91 8.332L4.899 8.257L4.891 8.182L4.884 8.106L4.879 8.029L4.876 7.952L4.875 7.875L4.876 7.798L4.879 7.721L4.884 7.644L4.891 7.568L4.899 7.493L4.91 7.418L4.922 7.344L4.936 7.271L4.952 7.198L4.97 7.126L4.989 7.054L5.01 6.983L5.033 6.913L5.057 6.844L5.083 6.775L5.111 6.708L5.14 6.641L5.171 6.575L5.203 6.51L5.237 6.446L5.273 6.382L5.31 6.32L5.348 6.259L5.388 6.198L5.429 6.139L5.471 6.081L5.515 6.023L5.56 5.967L5.607 5.912L5.655 5.858L5.704 5.806L5.754 5.754L5.806 5.704L5.858 5.655L5.912 5.607L5.967 5.56L6.023 5.515L6.081 5.471L6.139 5.429L6.198 5.388L6.259 5.348L6.32 5.31L6.382 5.273L6.446 5.237L6.51 5.203L6.575 5.171L6.641 5.14L6.708 5.111L6.775 5.083L6.844 5.057L6.913 5.033L6.983 5.01L7.054 4.989L7.126 4.97L7.198 4.952L7.271 4.936L7.344 4.922L7.418 4.91L7.493 4.899L7.568 4.891L7.644 4.884L7.721 4.879L7.798 4.876L7.875 4.875L7.952 4.876ZM7.836 6.376L7.797 6.377L7.758 6.38L7.72 6.383L7.683 6.387L7.645 6.392L7.608 6.399L7.572 6.406L7.536 6.413L7.5 6.422L7.464 6.432L7.429 6.442L7.394 6.454L7.36 6.466L7.326 6.479L7.292 6.492L7.259 6.507L7.226 6.522L7.194 6.538L7.162 6.555L7.13 6.573L7.099 6.591L7.068 6.611L7.038 6.631L7.008 6.651L6.979 6.673L6.95 6.695L6.922 6.717L6.894 6.741L6.867 6.765L6.841 6.789L6.815 6.815L6.789 6.841L6.765 6.867L6.741 6.894L6.717 6.922L6.695 6.95L6.673 6.979L6.651 7.008L6.631 7.038L6.611 7.068L6.591 7.099L6.573 7.13L6.555 7.162L6.538 7.194L6.522 7.226L6.507 7.259L6.492 7.292L6.479 7.326L6.466 7.36L6.454 7.394L6.442 7.429L6.432 7.464L6.422 7.5L6.413 7.536L6.406 7.572L6.399 7.608L6.392 7.645L6.387 7.683L6.383 7.72L6.38 7.758L6.377 7.797L6.376 7.836L6.375 7.875L6.376 7.914L6.377 7.953L6.38 7.992L6.383 8.03L6.387 8.067L6.392 8.105L6.399 8.142L6.406 8.178L6.413 8.214L6.422 8.25L6.432 8.286L6.442 8.321L6.454 8.356L6.466 8.39L6.479 8.424L6.492 8.458L6.507 8.491L6.522 8.524L6.538 8.556L6.555 8.588L6.573 8.62L6.591 8.651L6.611 8.682L6.631 8.712L6.651 8.742L6.673 8.771L6.695 8.8L6.717 8.828L6.741 8.856L6.765 8.883L6.789 8.909L6.815 8.935L6.841 8.961L6.867 8.985L6.894 9.009L6.922 9.033L6.95 9.055L6.979 9.077L7.008 9.099L7.038 9.119L7.068 9.139L7.099 9.159L7.13 9.177L7.162 9.195L7.194 9.212L7.226 9.228L7.259 9.243L7.292 9.258L7.326 9.271L7.36 9.284L7.394 9.296L7.429 9.308L7.464 9.318L7.5 9.328L7.536 9.337L7.572 9.344L7.608 9.351L7.645 9.358L7.683 9.363L7.72 9.367L7.758 9.37L7.797 9.373L7.836 9.374L7.875 9.375L7.914 9.374L7.953 9.373L7.992 9.37L8.03 9.367L8.067 9.363L8.105 9.358L8.142 9.351L8.178 9.344L8.214 9.337L8.25 9.328L8.286 9.318L8.321 9.308L8.356 9.296L8.39 9.284L8.424 9.271L8.458 9.258L8.491 9.243L8.524 9.228L8.556 9.212L8.588 9.195L8.62 9.177L8.651 9.159L8.682 9.139L8.712 9.119L8.742 9.099L8.771 9.077L8.8 9.055L8.828 9.033L8.856 9.009L8.883 8.985L8.909 8.961L8.935 8.935L8.961 8.909L8.985 8.883L9.009 8.856L9.033 8.828L9.055 8.8L9.077 8.771L9.099 8.742L9.119 8.712L9.139 8.682L9.159 8.651L9.177 8.62L9.195 8.588L9.212 8.556L9.228 8.524L9.243 8.491L9.258 8.458L9.271 8.424L9.284 8.39L9.296 8.356L9.308 8.321L9.318 8.286L9.328 8.25L9.337 8.214L9.344 8.178L9.351 8.142L9.358 8.105L9.363 8.067L9.367 8.03L9.37 7.992L9.373 7.953L9.374 7.914L9.375 7.875L9.374 7.836L9.373 7.797L9.37 7.758L9.367 7.72L9.363 7.683L9.358 7.645L9.351 7.608L9.344 7.572L9.337 7.536L9.328 7.5L9.318 7.464L9.308 7.429L9.296 7.394L9.284 7.36L9.271 7.326L9.258 7.292L9.243 7.259L9.228 7.226L9.212 7.194L9.195 7.162L9.177 7.13L9.159 7.099L9.139 7.068L9.119 7.038L9.099 7.008L9.077 6.979L9.055 6.95L9.033 6.922L9.009 6.894L8.985 6.867L8.961 6.841L8.935 6.815L8.909 6.789L8.883 6.765L8.856 6.741L8.828 6.717L8.8 6.695L8.771 6.673L8.742 6.651L8.712 6.631L8.682 6.611L8.651 6.591L8.62 6.573L8.588 6.555L8.556 6.538L8.524 6.522L8.491 6.507L8.458 6.492L8.424 6.479L8.39 6.466L8.356 6.454L8.321 6.442L8.286 6.432L8.25 6.422L8.214 6.413L8.178 6.406L8.142 6.399L8.105 6.392L8.067 6.387L8.03 6.383L7.992 6.38L7.953 6.377L7.914 6.376L7.875 6.375L7.836 6.376Z" fill="#4ED401"/>
<path fill-rule="evenodd" clip-rule="evenodd" d="M7.943 2.625L8.01 2.627L8.078 2.629L8.145 2.632L8.212 2.636L8.279 2.64L8.345 2.646L8.411 2.652L8.477 2.659L8.543 2.667L8.609 2.676L8.674 2.686L8.739 2.696L8.804 2.707L8.868 2.719L8.933 2.732L8.996 2.745L9.06 2.76L9.123 2.775L9.186 2.79L9.249 2.807L9.312 2.824L9.374 2.842L9.435 2.861L9.497 2.881L9.558 2.901L9.619 2.922L9.679 2.944L9.739 2.966L9.799 2.989L9.859 3.013L9.918 3.038L9.976 3.063L10.035 3.089L10.093 3.116L10.15 3.143L10.207 3.171L10.264 3.2L10.321 3.229L10.377 3.259L10.432 3.29L10.487 3.321L10.542 3.353L10.596 3.386L10.65 3.419L10.704 3.453L10.757 3.487L10.809 3.522L10.862 3.558L10.913 3.594L10.965 3.631L11.015 3.669L11.066 3.707L11.115 3.745L11.165 3.785L11.214 3.824L11.262 3.865L11.31 3.906L11.357 3.947L11.404 3.99L11.451 4.032L11.496 4.075L11.542 4.119L11.587 4.163L11.631 4.208L11.675 4.254L11.718 4.299L11.76 4.346L11.803 4.393L11.844 4.44L11.885 4.488L11.926 4.536L11.965 4.585L12.005 4.635L12.043 4.684L12.081 4.735L12.119 4.785L12.156 4.837L12.192 4.888L12.228 4.941L12.263 4.993L12.297 5.046L12.331 5.1L12.364 5.154L12.397 5.208L12.429 5.263L12.46 5.318L12.491 5.373L12.521 5.429L12.55 5.486L12.579 5.543L12.607 5.6L12.634 5.657L12.661 5.715L12.687 5.774L12.712 5.832L12.737 5.891L12.761 5.951L12.784 6.011L12.806 6.071L12.828 6.131L12.849 6.192L12.869 6.253L12.889 6.315L12.908 6.376L12.926 6.438L12.943 6.501L12.96 6.564L12.975 6.627L12.99 6.69L13.005 6.754L13.018 6.817L13.031 6.882L13.043 6.946L13.054 7.011L13.064 7.076L13.074 7.141L13.083 7.207L13.091 7.273L13.098 7.339L13.104 7.405L13.11 7.471L13.114 7.538L13.118 7.605L13.121 7.672L13.123 7.74L13.125 7.807V7.943L13.123 8.01L13.121 8.078L13.118 8.145L13.114 8.212L13.11 8.279L13.104 8.345L13.098 8.411L13.091 8.477L13.083 8.543L13.074 8.609L13.064 8.674L13.054 8.739L13.043 8.804L13.031 8.868L13.018 8.933L13.005 8.996L12.99 9.06L12.975 9.123L12.96 9.186L12.943 9.249L12.926 9.312L12.908 9.374L12.889 9.435L12.869 9.497L12.849 9.558L12.828 9.619L12.806 9.679L12.784 9.739L12.761 9.799L12.737 9.859L12.712 9.918L12.687 9.976L12.661 10.035L12.634 10.093L12.607 10.15L12.579 10.207L12.55 10.264L12.521 10.321L12.491 10.377L12.46 10.432L12.429 10.487L12.397 10.542L12.364 10.596L12.331 10.65L12.297 10.704L12.263 10.757L12.228 10.809L12.192 10.862L12.156 10.913L12.119 10.965L12.081 11.015L12.043 11.066L12.005 11.115L11.965 11.165L11.926 11.214L11.885 11.262L11.844 11.31L11.803 11.357L11.76 11.404L11.718 11.451L11.675 11.496L11.631 11.542L11.587 11.587L11.542 11.631L11.496 11.675L11.451 11.718L11.404 11.76L11.357 11.803L11.31 11.844L11.262 11.885L11.214 11.926L11.165 11.965L11.115 12.005L11.066 12.043L11.015 12.081L10.965 12.119L10.913 12.156L10.862 12.192L10.809 12.228L10.757 12.263L10.704 12.297L10.65 12.331L10.596 12.364L10.542 12.397L10.487 12.429L10.432 12.46L10.377 12.491L10.321 12.521L10.264 12.55L10.207 12.579L10.15 12.607L10.093 12.634L10.035 12.661L9.976 12.687L9.918 12.712L9.859 12.737L9.799 12.761L9.739 12.784L9.679 12.806L9.619 12.828L9.558 12.849L9.497 12.869L9.435 12.889L9.374 12.908L9.312 12.926L9.249 12.943L9.186 12.96L9.123 12.975L9.06 12.99L8.996 13.005L8.933 13.018L8.868 13.031L8.804 13.043L8.739 13.054L8.674 13.064L8.609 13.074L8.543 13.083L8.477 13.091L8.411 13.098L8.345 13.104L8.279 13.11L8.212 13.114L8.145 13.118L8.078 13.121L8.01 13.123L7.943 13.125H7.807L7.74 13.123L7.672 13.121L7.605 13.118L7.538 13.114L7.471 13.11L7.405 13.104L7.339 13.098L7.273 13.091L7.207 13.083L7.141 13.074L7.076 13.064L7.011 13.054L6.946 13.043L6.882 13.031L6.817 13.018L6.754 13.005L6.69 12.99L6.627 12.975L6.564 12.96L6.501 12.943L6.438 12.926L6.376 12.908L6.315 12.889L6.253 12.869L6.192 12.849L6.131 12.828L6.071 12.806L6.011 12.784L5.951 12.761L5.891 12.737L5.832 12.712L5.774 12.687L5.715 12.661L5.657 12.634L5.6 12.607L5.543 12.579L5.486 12.55L5.429 12.521L5.373 12.491L5.318 12.46L5.263 12.429L5.208 12.397L5.154 12.364L5.1 12.331L5.046 12.297L4.993 12.263L4.941 12.228L4.888 12.192L4.837 12.156L4.785 12.119L4.735 12.081L4.684 12.043L4.635 12.005L4.585 11.965L4.536 11.926L4.488 11.885L4.44 11.844L4.393 11.803L4.346 11.76L4.299 11.718L4.254 11.675L4.208 11.631L4.163 11.587L4.119 11.542L4.075 11.496L4.032 11.451L3.99 11.404L3.947 11.357L3.906 11.31L3.865 11.262L3.824 11.214L3.785 11.165L3.745 11.115L3.707 11.066L3.669 11.015L3.631 10.965L3.594 10.913L3.558 10.862L3.522 10.809L3.487 10.757L3.453 10.704L3.419 10.65L3.386 10.596L3.353 10.542L3.321 10.487L3.29 10.432L3.259 10.377L3.229 10.321L3.2 10.264L3.171 10.207L3.143 10.15L3.116 10.093L3.089 10.035L3.063 9.976L3.038 9.918L3.013 9.859L2.989 9.799L2.966 9.739L2.944 9.679L2.922 9.619L2.901 9.558L2.881 9.497L2.861 9.435L2.842 9.374L2.824 9.312L2.807 9.249L2.79 9.186L2.775 9.123L2.76 9.06L2.745 8.996L2.732 8.933L2.719 8.868L2.707 8.804L2.696 8.739L2.686 8.674L2.676 8.609L2.667 8.543L2.659 8.477L2.652 8.411L2.646 8.345L2.64 8.279L2.636 8.212L2.632 8.145L2.629 8.078L2.627 8.01L2.625 7.943V7.807L2.627 7.74L2.629 7.672L2.632 7.605L2.636 7.538L2.64 7.471L2.646 7.405L2.652 7.339L2.659 7.273L2.667 7.207L2.676 7.141L2.686 7.076L2.696 7.011L2.707 6.946L2.719 6.882L2.732 6.817L2.745 6.754L2.76 6.69L2.775 6.627L2.79 6.564L2.807 6.501L2.824 6.438L2.842 6.376L2.861 6.315L2.881 6.253L2.901 6.192L2.922 6.131L2.944 6.071L2.966 6.011L2.989 5.951L3.013 5.891L3.038 5.832L3.063 5.774L3.089 5.715L3.116 5.657L3.143 5.6L3.171 5.543L3.2 5.486L3.229 5.429L3.259 5.373L3.29 5.318L3.321 5.263L3.353 5.208L3.386 5.154L3.419 5.1L3.453 5.046L3.487 4.993L3.522 4.941L3.558 4.888L3.594 4.837L3.631 4.785L3.669 4.735L3.707 4.684L3.745 4.635L3.785 4.585L3.824 4.536L3.865 4.488L3.906 4.44L3.947 4.393L3.99 4.346L4.032 4.299L4.075 4.254L4.119 4.208L4.163 4.163L4.208 4.119L4.254 4.075L4.299 4.032L4.346 3.99L4.393 3.947L4.44 3.906L4.488 3.865L4.536 3.824L4.585 3.785L4.635 3.745L4.684 3.707L4.735 3.669L4.785 3.631L4.837 3.594L4.888 3.558L4.941 3.522L4.993 3.487L5.046 3.453L5.1 3.419L5.154 3.386L5.208 3.353L5.263 3.321L5.318 3.29L5.373 3.259L5.429 3.229L5.486 3.2L5.543 3.171L5.6 3.143L5.657 3.116L5.715 3.089L5.774 3.063L5.832 3.038L5.891 3.013L5.951 2.989L6.011 2.966L6.071 2.944L6.131 2.922L6.192 2.901L6.253 2.881L6.315 2.861L6.376 2.842L6.438 2.824L6.501 2.807L6.564 2.79L6.627 2.775L6.69 2.76L6.754 2.745L6.817 2.732L6.882 2.719L6.946 2.707L7.011 2.696L7.076 2.686L7.141 2.676L7.207 2.667L7.273 2.659L7.339 2.652L7.405 2.646L7.471 2.64L7.538 2.636L7.605 2.632L7.672 2.629L7.74 2.627L7.807 2.625H7.875H7.943ZM7.817 3.375L7.759 3.376L7.701 3.378L7.643 3.381L7.586 3.384L7.528 3.388L7.471 3.393L7.414 3.398L7.358 3.404L7.301 3.411L7.245 3.419L7.189 3.427L7.134 3.436L7.078 3.445L7.023 3.456L6.968 3.466L6.913 3.478L6.859 3.49L6.805 3.503L6.751 3.517L6.697 3.531L6.644 3.546L6.59 3.561L6.537 3.577L6.485 3.594L6.433 3.611L6.38 3.629L6.329 3.648L6.277 3.667L6.226 3.687L6.175 3.707L6.125 3.729L6.074 3.75L6.024 3.772L5.975 3.795L5.925 3.819L5.877 3.843L5.828 3.867L5.78 3.892L5.732 3.918L5.684 3.944L5.637 3.971L5.59 3.998L5.543 4.026L5.497 4.055L5.451 4.084L5.406 4.113L5.36 4.144L5.316 4.174L5.271 4.205L5.227 4.237L5.184 4.269L5.141 4.302L5.098 4.335L5.056 4.369L5.014 4.403L4.972 4.438L4.931 4.473L4.89 4.508L4.85 4.545L4.81 4.581L4.771 4.618L4.732 4.656L4.694 4.694L4.656 4.732L4.618 4.771L4.581 4.81L4.545 4.85L4.508 4.89L4.473 4.931L4.438 4.972L4.403 5.014L4.369 5.056L4.335 5.098L4.302 5.141L4.269 5.184L4.237 5.227L4.205 5.271L4.174 5.316L4.144 5.36L4.113 5.406L4.084 5.451L4.055 5.497L4.026 5.543L3.998 5.59L3.971 5.637L3.944 5.684L3.918 5.732L3.892 5.78L3.867 5.828L3.843 5.877L3.819 5.925L3.795 5.975L3.772 6.024L3.75 6.074L3.729 6.125L3.707 6.175L3.687 6.226L3.667 6.277L3.648 6.329L3.629 6.38L3.611 6.433L3.594 6.485L3.577 6.537L3.561 6.59L3.546 6.644L3.531 6.697L3.517 6.751L3.503 6.805L3.49 6.859L3.478 6.913L3.466 6.968L3.456 7.023L3.445 7.078L3.436 7.134L3.427 7.189L3.419 7.245L3.411 7.301L3.404 7.358L3.398 7.414L3.393 7.471L3.388 7.528L3.384 7.586L3.381 7.643L3.378 7.701L3.376 7.759L3.375 7.817V7.933L3.376 7.991L3.378 8.049L3.381 8.107L3.384 8.164L3.388 8.222L3.393 8.279L3.398 8.336L3.404 8.392L3.411 8.449L3.419 8.505L3.427 8.561L3.436 8.616L3.445 8.672L3.456 8.727L3.466 8.782L3.478 8.837L3.49 8.891L3.503 8.945L3.517 8.999L3.531 9.053L3.546 9.106L3.561 9.16L3.577 9.213L3.594 9.265L3.611 9.317L3.629 9.37L3.648 9.421L3.667 9.473L3.687 9.524L3.707 9.575L3.729 9.625L3.75 9.676L3.772 9.726L3.795 9.775L3.819 9.825L3.843 9.873L3.867 9.922L3.892 9.97L3.918 10.018L3.944 10.066L3.971 10.113L3.998 10.16L4.026 10.207L4.055 10.253L4.084 10.299L4.113 10.344L4.144 10.39L4.174 10.434L4.205 10.479L4.237 10.523L4.269 10.566L4.302 10.609L4.335 10.652L4.369 10.694L4.403 10.736L4.438 10.778L4.473 10.819L4.508 10.86L4.545 10.9L4.581 10.94L4.618 10.979L4.656 11.018L4.694 11.056L4.732 11.094L4.771 11.132L4.81 11.169L4.85 11.205L4.89 11.242L4.931 11.277L4.972 11.312L5.014 11.347L5.056 11.381L5.098 11.415L5.141 11.448L5.184 11.481L5.227 11.513L5.271 11.545L5.316 11.576L5.36 11.606L5.406 11.637L5.451 11.666L5.497 11.695L5.543 11.724L5.59 11.752L5.637 11.779L5.684 11.806L5.732 11.832L5.78 11.858L5.828 11.883L5.877 11.907L5.925 11.931L5.975 11.955L6.024 11.978L6.074 12L6.125 12.021L6.175 12.043L6.226 12.063L6.277 12.083L6.329 12.102L6.38 12.121L6.433 12.139L6.485 12.156L6.537 12.173L6.59 12.189L6.644 12.204L6.697 12.219L6.751 12.233L6.805 12.247L6.859 12.26L6.913 12.272L6.968 12.284L7.023 12.294L7.078 12.305L7.134 12.314L7.189 12.323L7.245 12.331L7.301 12.339L7.358 12.346L7.414 12.352L7.471 12.357L7.528 12.362L7.586 12.366L7.643 12.369L7.701 12.372L7.759 12.374L7.817 12.375H7.933L7.991 12.374L8.049 12.372L8.107 12.369L8.164 12.366L8.222 12.362L8.279 12.357L8.336 12.352L8.392 12.346L8.449 12.339L8.505 12.331L8.561 12.323L8.616 12.314L8.672 12.305L8.727 12.294L8.782 12.284L8.837 12.272L8.891 12.26L8.945 12.247L8.999 12.233L9.053 12.219L9.106 12.204L9.16 12.189L9.213 12.173L9.265 12.156L9.317 12.139L9.37 12.121L9.421 12.102L9.473 12.083L9.524 12.063L9.575 12.043L9.625 12.021L9.676 12L9.726 11.978L9.775 11.955L9.825 11.931L9.873 11.907L9.922 11.883L9.97 11.858L10.018 11.832L10.066 11.806L10.113 11.779L10.16 11.752L10.207 11.724L10.253 11.695L10.299 11.666L10.344 11.637L10.39 11.606L10.434 11.576L10.479 11.545L10.523 11.513L10.566 11.481L10.609 11.448L10.652 11.415L10.694 11.381L10.736 11.347L10.778 11.312L10.819 11.277L10.86 11.242L10.9 11.205L10.94 11.169L10.979 11.132L11.018 11.094L11.056 11.056L11.094 11.018L11.132 10.979L11.169 10.94L11.205 10.9L11.242 10.86L11.277 10.819L11.312 10.778L11.347 10.736L11.381 10.694L11.415 10.652L11.448 10.609L11.481 10.566L11.513 10.523L11.545 10.479L11.576 10.434L11.606 10.39L11.637 10.344L11.666 10.299L11.695 10.253L11.724 10.207L11.752 10.16L11.779 10.113L11.806 10.066L11.832 10.018L11.858 9.97L11.883 9.922L11.907 9.873L11.931 9.825L11.955 9.775L11.978 9.726L12 9.676L12.021 9.625L12.043 9.575L12.063 9.524L12.083 9.473L12.102 9.421L12.121 9.37L12.139 9.317L12.156 9.265L12.173 9.213L12.189 9.16L12.204 9.106L12.219 9.053L12.233 8.999L12.247 8.945L12.26 8.891L12.272 8.837L12.284 8.782L12.294 8.727L12.305 8.672L12.314 8.616L12.323 8.561L12.331 8.505L12.339 8.449L12.346 8.392L12.352 8.336L12.357 8.279L12.362 8.222L12.366 8.164L12.369 8.107L12.372 8.049L12.374 7.991L12.375 7.933V7.817L12.374 7.759L12.372 7.701L12.369 7.643L12.366 7.586L12.362 7.528L12.357 7.471L12.352 7.414L12.346 7.358L12.339 7.301L12.331 7.245L12.323 7.189L12.314 7.134L12.305 7.078L12.294 7.023L12.284 6.968L12.272 6.913L12.26 6.859L12.247 6.805L12.233 6.751L12.219 6.697L12.204 6.644L12.189 6.59L12.173 6.537L12.156 6.485L12.139 6.433L12.121 6.38L12.102 6.329L12.083 6.277L12.063 6.226L12.043 6.175L12.021 6.125L12 6.074L11.978 6.024L11.955 5.975L11.931 5.925L11.907 5.877L11.883 5.828L11.858 5.78L11.832 5.732L11.806 5.684L11.779 5.637L11.752 5.59L11.724 5.543L11.695 5.497L11.666 5.451L11.637 5.406L11.606 5.36L11.576 5.316L11.545 5.271L11.513 5.227L11.481 5.184L11.448 5.141L11.415 5.098L11.381 5.056L11.347 5.014L11.312 4.972L11.277 4.931L11.242 4.89L11.205 4.85L11.169 4.81L11.132 4.771L11.094 4.732L11.056 4.694L11.018 4.656L10.979 4.618L10.94 4.581L10.9 4.545L10.86 4.508L10.819 4.473L10.778 4.438L10.736 4.403L10.694 4.369L10.652 4.335L10.609 4.302L10.566 4.269L10.523 4.237L10.479 4.205L10.434 4.174L10.39 4.144L10.344 4.113L10.299 4.084L10.253 4.055L10.207 4.026L10.16 3.998L10.113 3.971L10.066 3.944L10.018 3.918L9.97 3.892L9.922 3.867L9.873 3.843L9.825 3.819L9.775 3.795L9.726 3.772L9.676 3.75L9.625 3.729L9.575 3.707L9.524 3.687L9.473 3.667L9.421 3.648L9.37 3.629L9.317 3.611L9.265 3.594L9.213 3.577L9.16 3.561L9.106 3.546L9.053 3.531L8.999 3.517L8.945 3.503L8.891 3.49L8.837 3.478L8.782 3.466L8.727 3.456L8.672 3.445L8.616 3.436L8.561 3.427L8.505 3.419L8.449 3.411L8.392 3.404L8.336 3.398L8.279 3.393L8.222 3.388L8.164 3.384L8.107 3.381L8.049 3.378L7.991 3.376L7.933 3.375H7.875H7.817Z" fill="#4ED401"/>
<path fill-rule="evenodd" clip-rule="evenodd" d="M7.972 0.376L8.068 0.377L8.165 0.381L8.261 0.385L8.356 0.39L8.452 0.397L8.547 0.405L8.641 0.414L8.736 0.424L8.83 0.435L8.923 0.448L9.017 0.461L9.109 0.476L9.202 0.492L9.294 0.509L9.386 0.527L9.477 0.547L9.568 0.567L9.658 0.589L9.748 0.611L9.838 0.635L9.927 0.66L10.016 0.686L10.104 0.712L10.192 0.74L10.279 0.769L10.366 0.799L10.453 0.83L10.539 0.862L10.624 0.896L10.709 0.93L10.793 0.965L10.877 1.001L10.96 1.038L11.043 1.076L11.125 1.115L11.207 1.155L11.288 1.196L11.369 1.238L11.449 1.281L11.528 1.325L11.607 1.369L11.685 1.415L11.763 1.461L11.84 1.509L11.916 1.557L11.992 1.606L12.067 1.657L12.142 1.708L12.215 1.759L12.289 1.812L12.361 1.866L12.433 1.92L12.504 1.976L12.575 2.032L12.645 2.089L12.714 2.146L12.782 2.205L12.85 2.264L12.917 2.324L12.983 2.385L13.048 2.447L13.113 2.509L13.177 2.573L13.241 2.637L13.303 2.702L13.365 2.767L13.426 2.833L13.486 2.9L13.545 2.968L13.604 3.036L13.661 3.105L13.718 3.175L13.774 3.246L13.83 3.317L13.884 3.389L13.938 3.461L13.991 3.535L14.042 3.608L14.093 3.683L14.144 3.758L14.193 3.834L14.241 3.91L14.289 3.987L14.335 4.065L14.381 4.143L14.425 4.222L14.469 4.301L14.512 4.381L14.554 4.462L14.595 4.543L14.635 4.625L14.674 4.707L14.712 4.79L14.749 4.873L14.785 4.957L14.82 5.041L14.854 5.126L14.888 5.211L14.92 5.297L14.951 5.384L14.981 5.471L15.01 5.558L15.038 5.646L15.064 5.734L15.09 5.823L15.115 5.912L15.139 6.002L15.161 6.092L15.183 6.182L15.203 6.273L15.223 6.364L15.241 6.456L15.258 6.548L15.274 6.641L15.289 6.733L15.302 6.827L15.315 6.92L15.326 7.014L15.336 7.109L15.345 7.203L15.353 7.298L15.36 7.394L15.365 7.489L15.369 7.585L15.373 7.682L15.374 7.778L15.375 7.875L15.374 7.972L15.373 8.068L15.369 8.165L15.365 8.261L15.36 8.356L15.353 8.452L15.345 8.547L15.336 8.641L15.326 8.736L15.315 8.83L15.302 8.923L15.289 9.017L15.274 9.109L15.258 9.202L15.241 9.294L15.223 9.386L15.203 9.477L15.183 9.568L15.161 9.658L15.139 9.748L15.115 9.838L15.09 9.927L15.064 10.016L15.038 10.104L15.01 10.192L14.981 10.279L14.951 10.366L14.92 10.453L14.888 10.539L14.854 10.624L14.82 10.709L14.785 10.793L14.749 10.877L14.712 10.96L14.674 11.043L14.635 11.125L14.595 11.207L14.554 11.288L14.512 11.369L14.469 11.449L14.425 11.528L14.381 11.607L14.335 11.685L14.289 11.763L14.241 11.84L14.193 11.916L14.144 11.992L14.093 12.067L14.042 12.142L13.991 12.215L13.938 12.289L13.884 12.361L13.83 12.433L13.774 12.504L13.718 12.575L13.661 12.645L13.604 12.714L13.545 12.782L13.486 12.85L13.426 12.917L13.365 12.983L13.303 13.048L13.241 13.113L13.177 13.177L13.113 13.241L13.048 13.303L12.983 13.365L12.917 13.426L12.85 13.486L12.782 13.545L12.714 13.604L12.645 13.661L12.575 13.718L12.504 13.774L12.433 13.83L12.361 13.884L12.289 13.938L12.215 13.991L12.142 14.042L12.067 14.093L11.992 14.144L11.916 14.193L11.84 14.241L11.763 14.289L11.685 14.335L11.607 14.381L11.528 14.425L11.449 14.469L11.369 14.512L11.288 14.554L11.207 14.595L11.125 14.635L11.043 14.674L10.96 14.712L10.877 14.749L10.793 14.785L10.709 14.82L10.624 14.854L10.539 14.888L10.453 14.92L10.366 14.951L10.279 14.981L10.192 15.01L10.104 15.038L10.016 15.064L9.927 15.09L9.838 15.115L9.748 15.139L9.658 15.161L9.568 15.183L9.477 15.203L9.386 15.223L9.294 15.241L9.202 15.258L9.109 15.274L9.017 15.289L8.923 15.302L8.83 15.315L8.736 15.326L8.641 15.336L8.547 15.345L8.452 15.353L8.356 15.36L8.261 15.365L8.165 15.369L8.068 15.373L7.972 15.374L7.875 15.375L7.778 15.374L7.682 15.373L7.585 15.369L7.489 15.365L7.394 15.36L7.298 15.353L7.203 15.345L7.109 15.336L7.014 15.326L6.92 15.315L6.827 15.302L6.733 15.289L6.641 15.274L6.548 15.258L6.456 15.241L6.364 15.223L6.273 15.203L6.182 15.183L6.092 15.161L6.002 15.139L5.912 15.115L5.823 15.09L5.734 15.064L5.646 15.038L5.558 15.01L5.471 14.981L5.384 14.951L5.297 14.92L5.211 14.888L5.126 14.854L5.041 14.82L4.957 14.785L4.873 14.749L4.79 14.712L4.707 14.674L4.625 14.635L4.543 14.595L4.462 14.554L4.381 14.512L4.301 14.469L4.222 14.425L4.143 14.381L4.065 14.335L3.987 14.289L3.91 14.241L3.834 14.193L3.758 14.144L3.683 14.093L3.608 14.042L3.535 13.991L3.461 13.938L3.389 13.884L3.317 13.83L3.246 13.774L3.175 13.718L3.105 13.661L3.036 13.604L2.968 13.545L2.9 13.486L2.833 13.426L2.767 13.365L2.702 13.303L2.637 13.241L2.573 13.177L2.509 13.113L2.447 13.048L2.385 12.983L2.324 12.917L2.264 12.85L2.205 12.782L2.146 12.714L2.089 12.645L2.032 12.575L1.976 12.504L1.92 12.433L1.866 12.361L1.812 12.289L1.759 12.215L1.708 12.142L1.657 12.067L1.606 11.992L1.557 11.916L1.509 11.84L1.461 11.763L1.415 11.685L1.369 11.607L1.325 11.528L1.281 11.449L1.238 11.369L1.196 11.288L1.155 11.207L1.115 11.125L1.076 11.043L1.038 10.96L1.001 10.877L0.965 10.793L0.93 10.709L0.896 10.624L0.862 10.539L0.83 10.453L0.799 10.366L0.769 10.279L0.74 10.192L0.712 10.104L0.686 10.016L0.66 9.927L0.635 9.838L0.611 9.748L0.589 9.658L0.567 9.568L0.547 9.477L0.527 9.386L0.509 9.294L0.492 9.202L0.476 9.109L0.461 9.017L0.448 8.923L0.435 8.83L0.424 8.736L0.414 8.641L0.405 8.547L0.397 8.452L0.39 8.356L0.385 8.261L0.381 8.165L0.377 8.068L0.376 7.972L0.375 7.875L0.376 7.778L0.377 7.682L0.381 7.585L0.385 7.489L0.39 7.394L0.397 7.298L0.405 7.203L0.414 7.109L0.424 7.014L0.435 6.92L0.448 6.827L0.461 6.733L0.476 6.641L0.492 6.548L0.509 6.456L0.527 6.364L0.547 6.273L0.567 6.182L0.589 6.092L0.611 6.002L0.635 5.912L0.66 5.823L0.686 5.734L0.712 5.646L0.74 5.558L0.769 5.471L0.799 5.384L0.83 5.297L0.862 5.211L0.896 5.126L0.93 5.041L0.965 4.957L1.001 4.873L1.038 4.79L1.076 4.707L1.115 4.625L1.155 4.543L1.196 4.462L1.238 4.381L1.281 4.301L1.325 4.222L1.369 4.143L1.415 4.065L1.461 3.987L1.509 3.91L1.557 3.834L1.606 3.758L1.657 3.683L1.708 3.608L1.759 3.535L1.812 3.461L1.866 3.389L1.92 3.317L1.976 3.246L2.032 3.175L2.089 3.105L2.146 3.036L2.205 2.968L2.264 2.9L2.324 2.833L2.385 2.767L2.447 2.702L2.509 2.637L2.573 2.573L2.637 2.509L2.702 2.447L2.767 2.385L2.833 2.324L2.9 2.264L2.968 2.205L3.036 2.146L3.105 2.089L3.175 2.032L3.246 1.976L3.317 1.92L3.389 1.866L3.461 1.812L3.535 1.759L3.608 1.708L3.683 1.657L3.758 1.606L3.834 1.557L3.91 1.509L3.987 1.461L4.065 1.415L4.143 1.369L4.222 1.325L4.301 1.281L4.381 1.238L4.462 1.196L4.543 1.155L4.625 1.115L4.707 1.076L4.79 1.038L4.873 1.001L4.957 0.965L5.041 0.93L5.126 0.896L5.211 0.862L5.297 0.83L5.384 0.799L5.471 0.769L5.558 0.74L5.646 0.712L5.734 0.686L5.823 0.66L5.912 0.635L6.002 0.611L6.092 0.589L6.182 0.567L6.273 0.547L6.364 0.527L6.456 0.509L6.548 0.492L6.641 0.476L6.733 0.461L6.827 0.448L6.92 0.435L7.014 0.424L7.109 0.414L7.203 0.405L7.298 0.397L7.394 0.39L7.489 0.385L7.585 0.381L7.682 0.377L7.778 0.376L7.875 0.375L7.972 0.376ZM7.788 1.126L7.701 1.127L7.614 1.13L7.527 1.134L7.441 1.139L7.355 1.145L7.27 1.152L7.184 1.16L7.1 1.169L7.015 1.179L6.931 1.191L6.847 1.203L6.763 1.216L6.68 1.231L6.597 1.246L6.515 1.262L6.433 1.28L6.351 1.298L6.27 1.317L6.189 1.338L6.108 1.359L6.028 1.381L5.948 1.404L5.869 1.429L5.79 1.454L5.711 1.48L5.633 1.507L5.555 1.535L5.478 1.563L5.401 1.593L5.325 1.624L5.249 1.655L5.174 1.688L5.099 1.721L5.024 1.756L4.95 1.791L4.877 1.827L4.804 1.863L4.731 1.901L4.659 1.94L4.588 1.979L4.517 2.019L4.447 2.06L4.377 2.102L4.307 2.145L4.239 2.189L4.171 2.233L4.103 2.278L4.036 2.324L3.969 2.371L3.903 2.418L3.838 2.466L3.773 2.515L3.709 2.565L3.646 2.616L3.583 2.667L3.521 2.719L3.459 2.772L3.398 2.825L3.338 2.879L3.278 2.934L3.219 2.99L3.161 3.046L3.103 3.103L3.046 3.161L2.99 3.219L2.934 3.278L2.879 3.338L2.825 3.398L2.772 3.459L2.719 3.521L2.667 3.583L2.616 3.646L2.565 3.709L2.515 3.773L2.466 3.838L2.418 3.903L2.371 3.969L2.324 4.036L2.278 4.103L2.233 4.171L2.189 4.239L2.145 4.307L2.102 4.377L2.06 4.447L2.019 4.517L1.979 4.588L1.94 4.659L1.901 4.731L1.863 4.804L1.827 4.877L1.791 4.95L1.756 5.024L1.721 5.099L1.688 5.174L1.655 5.249L1.624 5.325L1.593 5.401L1.563 5.478L1.535 5.555L1.507 5.633L1.48 5.711L1.454 5.79L1.429 5.869L1.404 5.948L1.381 6.028L1.359 6.108L1.338 6.189L1.317 6.27L1.298 6.351L1.28 6.433L1.262 6.515L1.246 6.597L1.231 6.68L1.216 6.763L1.203 6.847L1.191 6.931L1.179 7.015L1.169 7.1L1.16 7.184L1.152 7.27L1.145 7.355L1.139 7.441L1.134 7.527L1.13 7.614L1.127 7.701L1.126 7.788L1.125 7.875L1.126 7.962L1.127 8.049L1.13 8.136L1.134 8.223L1.139 8.309L1.145 8.395L1.152 8.48L1.16 8.566L1.169 8.65L1.179 8.735L1.191 8.819L1.203 8.903L1.216 8.987L1.231 9.07L1.246 9.153L1.262 9.235L1.28 9.317L1.298 9.399L1.317 9.48L1.338 9.561L1.359 9.642L1.381 9.722L1.404 9.802L1.429 9.881L1.454 9.96L1.48 10.039L1.507 10.117L1.535 10.195L1.563 10.272L1.593 10.349L1.624 10.425L1.655 10.501L1.688 10.576L1.721 10.651L1.756 10.726L1.791 10.8L1.827 10.873L1.863 10.946L1.901 11.019L1.94 11.091L1.979 11.162L2.019 11.233L2.06 11.303L2.102 11.373L2.145 11.443L2.189 11.511L2.233 11.579L2.278 11.647L2.324 11.714L2.371 11.781L2.418 11.847L2.466 11.912L2.515 11.977L2.565 12.041L2.616 12.104L2.667 12.167L2.719 12.229L2.772 12.291L2.825 12.352L2.879 12.412L2.934 12.472L2.99 12.531L3.046 12.589L3.103 12.647L3.161 12.704L3.219 12.76L3.278 12.816L3.338 12.871L3.398 12.925L3.459 12.978L3.521 13.031L3.583 13.083L3.646 13.134L3.709 13.185L3.773 13.235L3.838 13.284L3.903 13.332L3.969 13.379L4.036 13.426L4.103 13.472L4.171 13.517L4.239 13.561L4.307 13.605L4.377 13.648L4.447 13.69L4.517 13.731L4.588 13.771L4.659 13.81L4.731 13.849L4.804 13.887L4.877 13.923L4.95 13.959L5.024 13.994L5.099 14.029L5.174 14.062L5.249 14.095L5.325 14.126L5.401 14.157L5.478 14.187L5.555 14.215L5.633 14.243L5.711 14.27L5.79 14.296L5.869 14.321L5.948 14.346L6.028 14.369L6.108 14.391L6.189 14.412L6.27 14.433L6.351 14.452L6.433 14.47L6.515 14.488L6.597 14.504L6.68 14.519L6.763 14.534L6.847 14.547L6.931 14.559L7.015 14.571L7.1 14.581L7.184 14.59L7.27 14.598L7.355 14.605L7.441 14.611L7.527 14.616L7.614 14.62L7.701 14.623L7.788 14.624L7.875 14.625L7.962 14.624L8.049 14.623L8.136 14.62L8.223 14.616L8.309 14.611L8.395 14.605L8.48 14.598L8.566 14.59L8.65 14.581L8.735 14.571L8.819 14.559L8.903 14.547L8.987 14.534L9.07 14.519L9.153 14.504L9.235 14.488L9.317 14.47L9.399 14.452L9.48 14.433L9.561 14.412L9.642 14.391L9.722 14.369L9.802 14.346L9.881 14.321L9.96 14.296L10.039 14.27L10.117 14.243L10.195 14.215L10.272 14.187L10.349 14.157L10.425 14.126L10.501 14.095L10.576 14.062L10.651 14.029L10.726 13.994L10.8 13.959L10.873 13.923L10.946 13.887L11.019 13.849L11.091 13.81L11.162 13.771L11.233 13.731L11.303 13.69L11.373 13.648L11.443 13.605L11.511 13.561L11.579 13.517L11.647 13.472L11.714 13.426L11.781 13.379L11.847 13.332L11.912 13.284L11.977 13.235L12.041 13.185L12.104 13.134L12.167 13.083L12.229 13.031L12.291 12.978L12.352 12.925L12.412 12.871L12.472 12.816L12.531 12.76L12.589 12.704L12.647 12.647L12.704 12.589L12.76 12.531L12.816 12.472L12.871 12.412L12.925 12.352L12.978 12.291L13.031 12.229L13.083 12.167L13.134 12.104L13.185 12.041L13.235 11.977L13.284 11.912L13.332 11.847L13.379 11.781L13.426 11.714L13.472 11.647L13.517 11.579L13.561 11.511L13.605 11.443L13.648 11.373L13.69 11.303L13.731 11.233L13.771 11.162L13.81 11.091L13.849 11.019L13.887 10.946L13.923 10.873L13.959 10.8L13.994 10.726L14.029 10.651L14.062 10.576L14.095 10.501L14.126 10.425L14.157 10.349L14.187 10.272L14.215 10.195L14.243 10.117L14.27 10.039L14.296 9.96L14.321 9.881L14.346 9.802L14.369 9.722L14.391 9.642L14.412 9.561L14.433 9.48L14.452 9.399L14.47 9.317L14.488 9.235L14.504 9.153L14.519 9.07L14.534 8.987L14.547 8.903L14.559 8.819L14.571 8.735L14.581 8.65L14.59 8.566L14.598 8.48L14.605 8.395L14.611 8.309L14.616 8.223L14.62 8.136L14.623 8.049L14.624 7.962L14.625 7.875L14.624 7.788L14.623 7.701L14.62 7.614L14.616 7.527L14.611 7.441L14.605 7.355L14.598 7.27L14.59 7.184L14.581 7.1L14.571 7.015L14.559 6.931L14.547 6.847L14.534 6.763L14.519 6.68L14.504 6.597L14.488 6.515L14.47 6.433L14.452 6.351L14.433 6.27L14.412 6.189L14.391 6.108L14.369 6.028L14.346 5.948L14.321 5.869L14.296 5.79L14.27 5.711L14.243 5.633L14.215 5.555L14.187 5.478L14.157 5.401L14.126 5.325L14.095 5.249L14.062 5.174L14.029 5.099L13.994 5.024L13.959 4.95L13.923 4.877L13.887 4.804L13.849 4.731L13.81 4.659L13.771 4.588L13.731 4.517L13.69 4.447L13.648 4.377L13.605 4.307L13.561 4.239L13.517 4.171L13.472 4.103L13.426 4.036L13.379 3.969L13.332 3.903L13.284 3.838L13.235 3.773L13.185 3.709L13.134 3.646L13.083 3.583L13.031 3.521L12.978 3.459L12.925 3.398L12.871 3.338L12.816 3.278L12.76 3.219L12.704 3.161L12.647 3.103L12.589 3.046L12.531 2.99L12.472 2.934L12.412 2.879L12.352 2.825L12.291 2.772L12.229 2.719L12.167 2.667L12.104 2.616L12.041 2.565L11.977 2.515L11.912 2.466L11.847 2.418L11.781 2.371L11.714 2.324L11.647 2.278L11.579 2.233L11.511 2.189L11.443 2.145L11.373 2.102L11.303 2.06L11.233 2.019L11.162 1.979L11.091 1.94L11.019 1.901L10.946 1.863L10.873 1.827L10.8 1.791L10.726 1.756L10.651 1.721L10.576 1.688L10.501 1.655L10.425 1.624L10.349 1.593L10.272 1.563L10.195 1.535L10.117 1.507L10.039 1.48L9.96 1.454L9.881 1.429L9.802 1.404L9.722 1.381L9.642 1.359L9.561 1.338L9.48 1.317L9.399 1.298L9.317 1.28L9.235 1.262L9.153 1.246L9.07 1.231L8.987 1.216L8.903 1.203L8.819 1.191L8.735 1.179L8.65 1.169L8.566 1.16L8.48 1.152L8.395 1.145L8.309 1.139L8.223 1.134L8.136 1.13L8.049 1.127L7.962 1.126L7.875 1.125L7.788 1.126Z" fill="#4ED401" fill-opacity="0.502"/>
</svg>
