<svg width="549" height="367" viewBox="0 0 549 367" fill="none" xmlns="http://www.w3.org/2000/svg">
<path d="M547.531 145.161L546.12 143.481L544.935 141.612L544.287 140.234L544.095 138.744L544.67 137.219L545.203 136.723L546.388 136.034L546.845 135.384L546.997 134.43L546.54 133.935L543.562 133.133H542.952L542.225 133.402L540.432 135.232L539.667 135.694L538.753 136.034L537.833 136.225L536.994 136.186L536.383 135.921L534.817 134.392L533.596 133.822L532.528 133.515L531.609 132.865L530.849 131.264L530.389 129.239L530.046 128.171L529.664 127.673L527.871 127.484L527.297 127.215L526.189 126.492L525.044 126.72L523.859 127.291L522.676 127.56L521.528 127.291L520.651 126.72L519.967 125.767L518.285 121.374L517.485 120.687L516.3 121.106L515.766 121.718L514.809 123.17L514.238 123.663L513.741 123.817L510.878 124.01L510.076 123.208L509.312 122.059L508.282 121.106L505.112 120.189L503.28 118.853L503.088 118.661L502.937 118.244L502.86 117.479L502.592 116.563V116.45L502.517 116.563L501.79 116.829L501.521 117.019L501.256 117.134L499.766 116.867L497.551 117.291L496.443 116.867L495.717 116.371L495.183 116.14L493.848 115.989L493.239 115.724L492.894 115.187L491.979 112.477L491.558 111.94L490.984 111.865L490.144 112.017L488.199 111.865L487.699 111.978L487.396 113.394L487.624 115.569L487.471 117.631L486.02 118.622L485.717 118.547L485.18 118.168L484.835 118.088L484.456 118.205L482.433 119.501L482.277 119.236V118.509L481.82 117.669L481.782 117.594L480.79 115.874L479.875 114.692L478.841 113.776L477.658 113.011L475.255 111.902L474.184 111.14L471.282 106.635L470.214 105.566L469.984 105.258L469.946 104.763L470.022 104.267L470.329 103.125L470.253 101.134L469.295 100.106L466.625 98.808L466.129 97.548L465.709 95.981L465.25 94.759L464.638 94.415L461.585 94.838L460.707 95.217L458.909 97.049L457.993 97.736L453.604 99.038L451.425 98.69L449.404 98.844L447.419 99.573L442.378 102.55L441.997 102.931L441.728 103.351L441.232 104.381L440.963 104.763L440.392 105.146L439.703 105.221L439.018 105.107L438.368 104.842L437.91 104.457L437.833 104.039L437.91 103.579L437.873 102.588L437.948 102.397L437.873 102.284L437.413 101.974L437.145 101.86L436.191 101.634L435.351 101.021L434.664 100.869L434.054 100.486L433.749 100.371H433.366L433.138 100.486L432.527 101.097L431.84 101.558L431.114 101.86L430.389 101.899L429.7 101.558L426.684 96.707L425.805 96.287L425.576 95.409L424.735 94.951L419.468 94.528L416.604 94.876L416.071 95.066L415.651 95.409L415.038 96.249L414.694 96.594L414.429 96.707H413.854L413.589 96.822L413.093 97.434L412.748 98.043L412.328 98.539L411.602 98.769L410.951 98.731L410.342 98.539L409.729 98.236L409.157 97.812L408.511 97.051L408.319 96.326L408.28 95.486L408.05 94.377L407.633 93.575L407.095 93.119L406.449 92.889L405.798 92.772L404.769 92.356L404.118 91.168L402.67 85.405L402.63 84.795L403.089 84.221L405.453 83.154L404.731 82.238L404.692 81.205L404.806 80.021L404.538 78.685L404.272 78.228L403.929 77.921L403.164 77.464L402.744 77.043L402.707 76.548L402.782 75.974L402.707 75.285L402.438 74.675L401.829 73.835L401.598 73.226L401.56 72.499L401.636 71.887L401.598 71.315L401.216 70.667L400.833 70.437L400.112 70.283L399.843 69.98L399.767 69.522V68.224L399.65 67.687L401.33 67.345L401.753 66.923L402.018 66.083L401.753 65.552L401.216 65.243L400.605 65.053L399.574 64.977L397.513 65.473L396.483 65.398L395.605 64.52L394.991 62.915L394.269 58.484L394.038 57.8L393.656 57.304L393.085 57.074L392.435 57.19L391.824 57.456L391.25 57.569L390.679 57.19L390.106 56.919L389.649 56.959L388.234 57.838L385.753 58.908L383.652 59.401L381.438 59.249L380.905 59.06L380.485 58.64L380.18 57.914L380.027 57.153L379.833 56.503L379.415 56.041L378.498 55.927L376.55 56.272L375.558 55.889L373.383 55.125L372.236 54.936L371.167 55.2L370.023 56.158L369.486 56.388L368.764 56.234L366.584 55.279L368.344 54.058L369.565 52.759L370.326 51.117L370.061 49.475L369.448 49.82H368.952L368.418 49.706L367.924 49.475L367.464 49.17L366.852 48.597L366.547 48.178L366.432 47.758L366.588 47.49L367.272 47.338L367.461 46.917L367.541 46.422L367.461 45.999L367.349 45.582L367.31 45.083L367.387 44.625L367.655 43.748L367.729 43.252L367.655 42.185L367.424 41.345L367.004 40.656L365.744 39.203L365.517 38.825L365.4 38.363L365.249 37.371L365.134 37.028L364.714 36.759L363.644 36.456L363.3 35.957L363.605 34.814L364.792 34.126L369.945 32.904L371.741 32.942L372.313 32.789L373.458 31.416L373.421 29.392L372.581 27.443L371.396 26.26L370.785 25.84L369.792 24.697L369.259 24.311H368.915L368.344 24.58L367.998 24.428V24.311L367.882 23.626L367.807 23.396L367.617 23.206L367.197 22.94L367.004 22.786L365.861 21.298L365.249 20.838H363.72V20.42L363.952 19.695L363.837 18.855L363.187 17.822L362.805 16.981L362.615 16.028L362.539 14.424L362.422 13.584V13.315L362.959 12.211V11.635L362.884 11.177L362.69 10.72L362.385 10.149L361.888 9.346L361.393 8.774L359.445 7.435L359.025 6.902L358.261 5.222L357.689 4.42L356.428 3.618L355.82 3.047L355.358 2.168L355.131 1.48L354.786 1.022L354.023 0.753L352.649 0.716L351.276 0.985L348.6 2.243L346.5 4.344L345.854 4.42L345.317 3.618L345.508 1.746L344.937 0.906L344.477 1.177L344.057 1.556L343.637 1.863L343.103 1.9L342.644 1.669L341.804 1.06L341.27 0.946H339.323L336.345 0.375L335.925 0.45L335.428 0.791L334.665 1.787L334.283 2.168L333.711 2.396L333.405 2.585L333.061 3.273L332.833 3.542L332.565 3.618L332.184 3.388L331.915 3.35L331.381 3.618L328.251 6.405L327.714 6.71L327.181 6.633L326.264 5.908L325.77 5.642H324.892L323.095 6.1H322.179L316.185 2.932L314.733 3.388L312.099 2.396L310.876 2.663L310.456 4.344L310.608 4.878L311.183 5.908L311.296 6.33L311.104 6.902L310.764 7.209L310.382 7.435L310.076 7.742L309.807 8.62L309.428 11.597L308.547 13.508L307.211 14.578L303.012 16.561L302.439 16.599L300.605 16.104L299.499 16.22L297.895 17.019L297.4 17.136L296.825 16.789L296.711 16.028V15.109L296.56 14.307L295.871 13.622L294.88 13.429L293.006 13.584L289.533 13.776L284.225 12.744H281.437L279.034 13.739L278.383 14.499L277.926 15.494L277.429 16.335L276.741 16.637L276.014 16.371L274.603 15.188L273.876 14.768L272.692 14.616L268.53 14.882L267.769 15.109L267.311 15.646L267.501 16.486L267.349 16.714L267.274 16.944L267.194 17.175L267.081 17.439L267.96 17.554L268.303 18.241L268.034 18.892L267.232 18.93L267.043 18.661L266.852 18.586L266.661 18.661L266.393 18.855L266.164 19.158L266.091 19.464V19.846L265.822 20.266L265.476 20.648L265.095 20.951L264.675 21.223L263.835 21.564V21.716L263.911 22.021L264.065 22.214V22.555L263.645 23.13L263.377 23.433L263.112 23.55L262.193 23.471L261.965 23.55L261.848 23.857V24.311L261.773 24.734L261.164 25.075L260.97 25.385L260.819 25.726L260.667 25.878L260.592 26.032L259.942 26.91L259.752 27.254L259.635 27.405V27.595L259.865 28.057L259.903 28.821L259.37 29.392L258.682 29.85L258.3 30.269L258.912 30.576L259.139 30.614V30.993L258.795 31.379L258.682 31.95L258.643 32.559L258.451 33.021L258.11 33.172L257.153 33.209L256.771 33.324L256.963 33.974L256.618 35.004L256.812 35.692L256.581 35.882L256.351 36.266L256.2 36.38L256.275 36.569L256.389 37.028L256.01 37.183L255.129 37.985V38.326L255.703 38.825L255.969 38.976V39.279L255.741 39.356L255.628 39.434L255.511 39.548L255.36 39.665V39.968L255.703 40.428L256.695 40.731L257.191 40.997L256.963 41.535L256.808 41.761L256.543 41.991L256.925 42.26L257.229 42.563L257.345 42.949L257.153 43.328L257.308 43.902L257.535 44.281L257.803 44.473L258.11 44.629V44.97L257.69 44.893L257.345 45.008L257.115 45.352L257.04 45.961L257.153 46.535L257.383 46.65H257.69L258.069 46.917L258.223 47.224L258.53 48.597L258.682 48.866L258.912 49.17L258.95 49.4L258.568 49.552L258.757 50.925L257.918 51.803L257.002 52.491L256.925 53.217L256.392 54.172L256.313 54.285L256.275 55.431L256.123 55.738L255.78 55.814L255.552 55.356L255.208 54.974L254.825 54.708L254.406 54.591L253.986 54.633L253.528 54.478L252.839 53.445L252.381 53.028L251.961 52.911H251.046L250.588 52.759L250.165 52.379L249.249 51.194L249.021 50.697L249.097 50.659L249.366 49.669L249.404 49.283V48.791L249.366 48.405L249.287 48.102L248.983 47.872L248.601 47.49L247.072 46.725L246.652 46.271L245.507 44.704L244.667 44.053L243.789 43.827L239.552 43.94L238.863 44.168L237.031 45.121H236.65L236.153 44.78L235.848 44.742L235.465 45.008L234.969 45.923L234.663 46.271L234.129 46.422L231.379 45.961L231 45.431L230.731 44.704L230.236 43.827L229.699 43.441L229.051 43.365L228.362 43.479L227.754 43.71L227.141 44.281L226.835 44.818L226.377 45.352L225.654 45.62L224.852 45.697L224.431 45.923L224.125 46.497L223.705 47.68L223.247 48.481H222.635L221.298 47.948L220.614 48.178L219.43 49.207L218.816 49.437L218.132 49.055L217.75 48.178L217.481 47.107L217.136 46.153L216.527 45.428L216.032 45.045L215.839 44.512L216.108 43.252L215.991 41.991L215.65 41.19L214.616 39.665L213.97 37.906L213.588 37.296L212.861 36.835L211.639 36.531L211.03 36.569L210.417 36.797L209.808 37.409L209.081 38.938L208.509 39.586L207.708 39.891H205.835L204.957 40.081L204.004 40.618L203.05 41.382L202.21 42.411L201.597 43.748L201.522 44.55L201.597 46.385L201.445 47.107L200.908 47.716L200.605 47.224L200.375 46.309L200.148 45.697L199.767 45.658L199.345 45.923L198.925 46.117L198.426 45.885L198.123 45.39L197.931 44.704L197.473 41.991L197.398 40.997L197.129 40.35L196.326 40.044L193.618 39.471H192.778L191.976 39.74L190.447 40.77L189.645 41.535L189.264 41.761L188.884 41.61L188.691 41.228L188.347 39.891L188.158 39.396L187.776 38.976L186.897 38.439L186.516 38.061L186.247 37.524L186.209 37.066V36.646L186.096 36.151L185.637 35.654L185.025 35.616L184.339 35.957L183.69 36.531L183.08 37.448L182.085 39.317L181.362 39.968L180.787 40.198H177.81L177.238 40.044L176.663 39.74L174.831 37.754L174.181 37.409L173.496 37.524L172.921 38.061L172.542 38.862L172.349 39.854V40.467L172.388 41.034L172.426 41.571L172.273 42.223L172.119 42.525L170.708 44.435L170.401 44.742L169.906 44.818L169.486 44.629L168.989 44.243L168.569 43.789L168.377 43.403L169.372 40.959L169.599 39.74L169.217 38.708L168.721 38.439L167.004 38.401L163.72 37.066L162.652 37.028L162.077 37.334L161.238 38.249L160.59 38.593L159.977 38.631L158.183 38.326L156.961 38.708L156.314 38.787L155.895 38.401L156.083 37.561L156.541 36.494L156.618 35.654L155.74 35.426L155.013 35.503L154.403 35.426L153.983 35.004L153.753 34.051V32.752L153.833 31.72L153.639 30.955L152.838 30.501L151.577 30.232L148.906 30.115L145.849 31.185L143.827 30.842L138.062 28.283L131.381 28.057L130.96 27.825L130.578 27.292L130.503 26.831L130.578 26.376V26.032L130.234 25.84L123.17 25.537L122.254 25.113L120.305 23.358L119.39 23.168L117.29 23.243L110.797 22.021L108.239 22.518L98.16 22.365L93.044 20.992L91.67 21.03L90.294 21.488L87.584 22.94L79.068 24.311L78.42 24.273L76.548 23.819L68.989 24.428L68.341 24.659L67.689 25.343L66.584 26.985L66.126 27.942L65.401 31.147L64.561 32.369L61.125 34.738L56.58 38.825L55.358 39.014L54.481 38.213L53.64 37.183L52.418 36.683L51.654 36.608L49.516 35.957H48.829L45.851 36.721L45.469 36.914L45.162 37.258L44.78 37.906L44.742 38.288L44.935 38.669L45.774 40.997L45.851 41.458L45.699 42.223L45.431 42.373L45.162 42.147L45.2 42.45L45.392 43.138L46.194 43.441L46.729 43.633L47.148 43.94L46.691 44.932L46.729 45.238L47.951 47.07L48.181 47.641L47.836 47.795L47.606 48.14L47.568 48.635L47.761 49.283L47.186 49.514L46.652 50.085L46.232 50.812L46.081 51.462L46.271 52.491L46.729 52.759H47.299L47.799 53.104L49.478 56.805L50.164 57.646L51.693 58.64L53.141 60.089L53.486 60.663L52.991 60.929L52.876 61.39L53.335 62.345L54.136 63.567L54.405 64.213L54.746 66.238V66.544L54.633 66.925L54.863 67.115L55.245 67.27L55.624 67.535L55.968 68.034L56.044 68.413L56.081 68.836L56.237 69.446L56.695 70.207L58.757 72.117L61.276 73.529L61.659 74.142L61.276 74.981L60.36 75.171H59.365L58.757 75.439L57.955 74.981L57.115 75.095L56.426 75.633L56.044 76.473L56.081 77.388L56.543 78L57.266 78.341L58.106 78.456V78.761L57.723 79.601L58.143 80.328L58.984 80.823L59.786 81.013L59.597 82.121L59.823 83.115L60.588 84.985L59.902 86.208L60.206 88.46L60.399 89.109L60.55 89.262L60.512 89.375L60.13 89.912L59.559 90.522L57.61 91.554L57.534 92.125L57.572 93.044L57.534 93.654L57.379 94.149L56.695 95.716L55.091 96.405L49.593 96.48L48.56 96.822L48.026 97.089L47.606 97.511L47.262 98.198L46.842 99.533L46.422 100.143L44.015 102.739L43.137 103.465L41.495 104.727L40.122 105.795L33.171 113.317L32.256 114.733L31.15 115.61L29.929 116.942L26.644 121.794L25.384 123.094L25.23 123.473L25.002 124.426L24.847 124.774L24.582 125.039L24.045 125.229L23.78 125.422L23.474 125.767L21.604 129.164L21.105 129.698L20.765 129.852L20.115 130.004L19.77 130.307L19.542 130.729L19.005 132.22L16.716 135.309L15.953 137.106L16.524 138.785L16.716 139.471L16.906 141.46L17.022 141.991L17.098 142.262L17.48 142.909L18.128 143.596L18.32 143.942L18.435 144.665L18.853 148.944L18.74 149.63L18.245 151.04L17.825 152.682L17.326 153.674L17.175 154.249L17.363 154.476L17.518 154.362L17.938 153.867L18.396 154.211H18.358L18.245 154.249L19.236 154.938L20.115 156.118L20.686 156.541L22.062 157.306L22.445 157.761V158.146L22.177 159.062L22.138 159.671L22.252 160.091L22.748 160.931L22.865 161.158L22.52 161.886L21.908 161.62L21.222 161.006L20.686 160.742L20.345 160.627L19.77 159.825L19.467 159.52L19.122 159.479L18.435 159.709L17.326 159.633L16.678 159.709L16.028 159.633L15.267 159.137L14.121 157.878L13.508 157.686L12.86 158.297L12.631 159.062L12.403 160.129L12.248 161.2V161.961L11.791 162.383L10.606 162.573L10.072 162.993L9.425 164.942L9.043 165.744L9.005 165.971V166.584L8.926 166.848L8.661 167.272L7.934 167.882L7.629 168.302L7.439 168.873V169.217L7.476 169.599L7.552 171.163L7.476 171.472L7.246 172.003L6.981 172.388L6.712 172.614L6.486 172.922L6.369 173.531L6.407 174.522L6.217 175.479L5.834 176.319L5.339 176.966L4.956 177.198L4.155 177.466L3.772 177.731L3.546 178.038L3.239 178.763L3.045 179.108L1.062 180.712L0.603 181.435L0.526 182.355L0.87 184.185L0.757 184.911L0.413 185.639L0.375 188.919L1.1 189.036H1.177L1.482 188.688L2.475 188.309L3.507 188.462L4.575 188.998L4.117 190.372V191.095L4.956 191.057L5.187 191.095L5.414 191.477V191.935L5.339 192.471L5.376 193.119L5.721 194.034L7.207 196.328L7.401 196.517L7.629 196.554L7.859 196.478L8.089 196.289L8.203 196.252H8.43L9.043 196.478L9.538 196.595L9.996 196.554L10.569 196.252H10.685L10.799 196.289L10.912 196.328L13.167 199.305L13.548 200.221L13.968 201.673L14.503 202.74L14.654 202.933H14.731L15.15 202.703H17.329L17.9 202.515L18.396 202.17L18.93 202.014L19.429 202.321L19.542 202.552L20.651 203.16L21.567 204.001L21.987 204.496L22.29 205.11L22.52 205.95L22.407 206.407L22.214 206.827L22.177 207.554L21.642 208.2L21.911 208.737L23.015 209.654L23.629 209.461L24.162 209.078L24.393 208.469L24.087 207.515L24.352 206.978L24.81 206.94L25.346 207.209L25.804 207.554L26.3 207.856L26.797 208.012L27.292 207.935L28.593 206.903L29.013 206.138L29.698 204.039L30.311 203.123L30.919 202.816L31.608 202.933L33.708 203.656L34.243 204.039L35.501 205.53L36.955 206.752L37.64 207.554L37.87 207.629L38.098 207.667H38.328L38.556 207.592H38.71L40.697 208.582L41.305 208.545L41.537 208.394L41.727 208.163L41.878 207.897L42.032 207.592L42.336 207.323L42.68 207.209L43.826 206.978L44.398 207.172L46.346 207.398L47.606 207.82L48.332 207.897L50.433 207.78L50.929 208.049L52.495 209.498L52.684 210.187H53.335L56.388 208.927L57.341 208.965L57.84 209.347L59.365 209.767L59.979 210.036L61.085 211.103L61.62 211.215L61.659 211.178L63.452 211.867L64.102 211.904L66.241 210.799L67.727 210.758L68.912 209.729L69.6 209.347H70.172L71.889 209.767L73.608 209.729L74.183 209.882L75.593 210.72L76.358 211.332L76.816 211.943L77.008 212.669L77.047 213.282L77.198 213.854L77.731 214.462L78.765 215.113L81.209 216.067L81.629 216.449L82.011 216.982L83.04 218.816L83.766 219.923L84.338 220.304L87.928 219.696L89.836 218.855L91.1 217.633L94.038 212.745L95.337 211.829L110.264 210.225L112.25 209.422L113.855 209.234L114.77 208.814L115.266 208.699L116.718 208.851L118.663 208.28L121.603 208.24L123.056 207.592L123.362 207.132L124.047 205.567L124.43 205.07L125.232 204.383L125.614 203.963L126.072 203.008L126.567 201.598L126.874 200.145L126.836 199.116L127.066 197.626L127.294 197.739L127.865 197.777L128.439 197.626L129.432 197.129L129.927 196.974L131.381 196.898L131.876 196.786L135.693 195.944L136.609 195.488L136.65 195.104L136.765 194.533L137.108 193.997L138.1 193.349L138.251 192.737L138.444 192.354L139.053 192.586L139.473 193.042L139.817 193.614L140.2 194.114L140.771 194.379L141.384 194.342L141.729 194.034L141.842 193.426V192.546L141.69 191.669L141.498 191.132L141.46 190.712L141.766 190.255H141.955L142.452 190.447H142.682L142.951 190.179L143.026 189.839L143.14 189.57L143.484 189.453L144.475 189.914L145.471 190.753L146.537 191.401L147.684 191.212L147.989 190.904L148.217 190.944L148.41 191.057L148.751 191.019L149.134 191.095L149.288 190.981L149.251 190.753L149.134 190.484L149.096 190.293V189.99L149.019 189.607L149.057 189.262L149.402 189.15L149.708 189.262L150.356 189.645L153.603 190.867L154.593 190.904L155.74 190.293L157.575 188.003L158.68 187.432L159.254 187.583L160.132 188.385L160.552 188.537L161.048 188.272L162.88 186.705L163.568 185.752H164.827L165.172 185.676L165.974 185.138L166.622 185.215L166.697 186.399L167.31 186.705L171.089 186.667L172.119 187.163L174.068 188.613L174.525 188.998L175.479 190.447L175.71 190.675L176.398 191.707L177.62 192.204L180.33 192.546L180.942 192.854L181.438 193.426L181.59 194.227L180.98 196.021L181.4 196.364L182.085 196.404L182.546 196.289L183.5 195.488L183.995 195.411L184.226 196.176L184.339 197.054L184.646 197.586L185.142 197.739L185.869 197.586L186.516 197.206L187.012 196.786L187.507 196.441L188.922 196.289L189.456 196.364L189.762 196.746L189.838 197.626L189.607 198.54L189.266 198.961L188.846 199.228L188.385 199.801L188.196 200.451L188.271 201.098L188.616 201.481L189.266 201.367L189.724 200.833L189.989 200.145L190.371 199.611L191.059 199.497L191.518 199.839L191.824 200.451L191.786 201.137L191.29 201.711L192.168 203.505L192.547 203.888L193.16 204.308L193.466 204.268L193.58 203.848V203.085L193.807 202.131L194.381 200.49L195.067 200.183L196.062 200.221L198.85 201.367L200.95 201.405L202.055 201.598L202.895 202.17L203.087 202.515L203.164 202.857L203.202 203.16L203.277 203.468L203.773 204.65L204.004 205.873L204.042 206.142L204.23 206.445L204.729 206.903L205.532 208.317L206.524 209.385L207.594 210.225L208.509 210.607L209.615 210.379L210.954 208.62L211.908 208.163H212.441L212.861 208.317L213.243 208.662L213.588 209.234L213.816 209.922L214.084 211.484L214.313 212.136L214.733 212.481L215.916 212.861L216.221 213.089L216.108 213.702L215.65 214.349L215.074 214.961L214.696 215.456L214.428 216.259V216.755L214.733 217.061L215.763 217.443L216.146 217.786L216.259 218.283L215.916 218.855L214.999 220.04L214.848 221.45L214.885 223.055L214.579 224.735L213.778 226.11L213.016 227.141L212.633 228.326L213.016 230.119L213.281 230.69L213.739 232.027L214.008 232.488L214.541 232.906L214.772 232.677L215.074 232.181L215.573 231.95L216.032 232.181L216.565 233.134L217.481 233.745L217.712 234.206L217.863 234.739L218.132 235.196L218.59 235.465L219.047 235.579L219.505 235.769L219.888 236.344L220.04 237.029V237.678L220.115 238.33L220.535 239.014L220.955 239.396L221.416 239.628L221.912 239.665L222.407 239.511L222.942 239.014L223.362 238.443L223.516 237.754L223.819 237.066L224.431 236.989L225.04 237.029L225.616 237.258L226.112 237.717L226.531 238.481L226.799 239.511L226.838 240.543L226.494 241.304L225.729 241.686L225.616 242.643L225.919 244.97L225.729 246.078L225.309 246.613L224.659 246.805L223.819 246.88L223.743 246.995V247.3L223.819 247.452L224.738 249.208L225.004 249.477L225.347 249.208L225.616 248.637L225.957 248.14L226.531 248.103L226.951 248.368L227.296 248.829L227.524 249.439L227.561 250.127L227.334 250.737L226.951 251.156L226.607 251.652L226.381 253.294L226.225 253.982L226.187 254.554L226.456 255.05L226.645 255.091L227.409 255.012L227.678 255.167L228.136 255.701L228.401 255.931L228.9 256.121L229.891 256.196L230.349 256.389L230.844 256.884L231.534 258.031L232.106 258.451L233.062 258.603L233.94 258.526L234.818 258.641L235.696 259.368L235.848 259.673L236.078 260.476L236.23 260.703L236.497 260.741L236.763 260.551L237.07 260.434L237.413 260.628L237.49 260.933V261.886L237.527 262.306L237.644 262.613L237.985 263.26L238.14 263.605L238.178 264.407L237.91 267.157L237.795 267.652L237.644 268.072L237.527 268.492V269.065L237.644 269.522L238.023 270.438L238.102 270.858L237.758 271.816L237.07 271.929L236.535 271.967L236.65 272.957L237.07 273.494L238.405 274.066L238.443 274.18L238.597 274.6L238.711 274.679L238.904 274.6L239.283 274.374H239.475L239.706 274.562L239.895 274.831L240.278 275.596L240.047 275.976L241.424 277.081L241.92 277.695L242.226 277.426L242.684 277.35L243.179 277.426L243.599 277.695L242.874 279.031L242.072 279.795L240.735 280.025L237.145 279.795L236.65 279.908L236.116 280.215L234.969 281.206L234.36 281.285L233.748 280.597L233.671 280.291V279.451L233.633 279.031L233.479 278.649L232.831 277.658L231.227 276.128L230.844 275.443V276.662L230.501 277.313L229.891 277.543H229.051L228.861 277.809L229.014 278.88L228.782 279.602L228.362 280.025L227.867 280.215L227.334 280.176L226.876 279.908L226.456 279.336L226.036 278.383L225.578 278.001L225.155 277.846L224.202 277.658L223.743 277.464L223.554 277.161L223.516 276.816L223.554 276.473L223.743 276.128L223.897 275.825L223.974 275.519L223.936 275.213L223.782 274.944L223.055 274.831L222.407 275.174L221.836 275.825L220.497 277.846H220.115L219.581 277.044L218.855 275.519L218.435 275.364L217.901 276.284L217.788 276.816L217.94 277.695V278.078L217.712 278.649L217.558 278.726L217.33 278.649L216.948 278.762L215.839 279.984L215.153 280.404L214.616 279.984V279.526L214.81 279.106L215.074 278.686L215.268 278.266L215.343 277.733L215.306 274.029L215.113 273.074L214.616 272.463H213.97L211.296 273.991L209.654 274.6L207.402 276.128L206.792 277.081L206.599 278.304L206.829 279.908L207.364 282.009L207.402 282.698L207.212 283.498L206.981 284.146V284.76L207.515 285.445L209.313 287.123L209.464 288.081L209.119 289.11L208.431 290.294L207.402 291.479L207.17 292.167L207.249 293.234L207.784 295.146L207.708 296.023L206.944 296.368L201.635 297.741L201.102 298.085L200.757 298.733V299.459L201.177 300.988L201.291 301.79L201.253 302.667L201.064 303.238L200.682 303.62L200.11 303.965L199.232 304.155L199.002 304.347V304.612L199.078 304.995L199.115 305.453L199.002 305.873L198.2 306.334L196.175 306.522L195.68 307.324L195.91 308.127L195.718 308.472L194.84 308.737L194.305 309.08L193.961 309.425L193.273 310.492L193.046 310.991L193.311 311.294L193.769 311.562L194.151 311.982L194.343 312.596L194.381 313.204L194.495 313.814L194.915 314.389L194.113 314.771L193.925 314.922L193.731 315.306V315.419L193.81 315.494L194 316.947L193.848 317.441L193.198 317.749L191.249 317.673L188.959 317.061L186.784 316.909L185.18 318.13L184.912 318.626L184.684 319.161L184.608 319.466L185.025 319.963L185.79 319.886L186.667 320.383L187.242 321.185L187.087 322.025L187.968 324.355L188.578 325.422L189.266 325.88L189.762 326.034L190.829 326.645L193.541 327.333L196.062 328.669L200.11 329.584L201.253 329.432L202.21 329.395L202.588 329.24L202.933 328.858L202.093 328.475L201.865 328.287L201.711 327.98L201.635 327.598L201.711 327.253L202.588 326.833L202.552 326.187L202.588 325.573L203.392 325.385L203.85 325.536L204.65 326.11L205.339 326.225L205.722 326.493L206.217 327.027L206.829 327.37L207.515 327.102L207.669 326.796L207.746 325.956L207.935 325.573L208.166 325.422L208.431 325.345L209.119 325.308L209.539 325.078L211.106 323.78L212.403 323.398L212.937 323.17L213.357 322.713L213.588 322.596L214.313 322.558L214.465 322.445L214.579 322.138L214.848 321.835L215.306 321.453L215.957 321.108L216.452 321.071L216.948 321.185H217.595L217.863 321.071L218.132 320.879L218.358 320.651L218.552 320.42L218.816 320.231L219.161 320.306L219.505 320.496L219.812 320.575L222.14 320.803L226.381 322.33L227.792 323.591L228.136 323.78L228.821 324.431L229.32 325.918L229.471 327.598L229.089 328.82L229.279 329.089L229.32 329.395L229.241 329.697L229.089 330.005L229.547 330.117L230.081 329.966L230.58 329.697L231.151 329.127L231.189 329.089L231.151 329.012L231.113 328.669L231.189 328.21L231.534 327.178L231.571 326.837L231.802 326.225L231.916 325.842L231.954 325.46L231.878 323.628L231.761 322.713L231.534 321.91L231.113 321.453L231.723 321.49L232.029 320.957L231.991 320.117L231.761 319.428L231.303 318.895L231.076 319.237L230.921 319.963L230.731 320.613L230.58 319.886L230.387 319.735L230.16 319.773L229.929 319.694V319.848L229.778 320L229.586 320.038L229.509 319.848V318.854L229.014 318.971L228.938 319.391L228.976 319.924L228.859 320.306L228.518 320.344L228.174 320.114L227.906 319.773L227.447 318.741V318.358L227.906 318.206L228.098 318.014L228.249 317.598L228.439 317.174L228.746 316.984L229.166 316.641L230.16 315.074L230.541 314.577L229.74 315.379L229.279 315.687L228.707 315.799L228.136 315.762L227.716 315.611L226.951 315.229L227.219 313.281L227.141 311.182L227.334 309.462L228.362 308.66L228.136 308.164L227.981 307.858L227.906 307.515L227.944 306.867L228.098 306.33L228.669 305.569L228.782 305.225L228.669 305.032L228.249 304.46L228.136 304.155L228.212 303.81L228.362 303.583L228.518 303.545L228.669 303.927L228.861 304.116L229.509 304.651L229.624 304.692L229.703 304.767L229.891 305.032L230.123 305.53L230.081 305.796L229.891 306.141L229.703 306.83L229.891 308.892L229.816 309.195L230.505 309.577L231.076 310.492L231.42 311.676L231.381 312.824L231.765 312.479L232.603 312.172L233.062 311.907L232.908 311.562V311.448L232.983 311.373L233.062 311.105L233.671 311.411L234.206 311.142L234.663 310.722L235.2 310.492L235.351 310.34L235.123 310.034L234.663 309.577L233.865 309.27L233.441 309.005L233.213 308.43L233.403 307.552L234.053 307.095L234.893 306.942H235.582L235.658 306.867L235.733 306.673L235.81 306.485L236.002 306.409L236.268 306.485L236.306 306.637L236.268 306.83L236.343 306.981L236.993 307.438L237.224 307.744L237.375 308.164L237.565 306.981L237.3 306.637L237.07 306.178L236.917 305.607L236.955 304.88L237.183 304.272L237.451 304.155L237.565 304.423L237.375 304.88V305.188L237.682 305.569L237.985 306.065L238.14 305.074L238.216 304.003L238.443 303.125L239.132 302.781L239.858 303.087L241.269 304.231L241.537 304.078L241.613 303.889L241.803 303.965L241.995 304.116L242.072 304.192L242.302 304.155L242.34 304.003V303.771L242.454 303.469L242.49 303.201L242.605 302.054L242.759 301.558L242.987 301.139L243.255 300.833L243.483 300.908L243.675 303.351L243.599 303.927L245.586 302.323L247.304 300.605L250.663 296.136L254.406 292.547L254.671 291.936L255.283 290.219L255.549 289.874L256.048 289.605L256.468 288.997L257.115 287.737L259.253 284.72L260.131 282.963L260.285 282.543V282.046L260.055 281.701L259.37 281.244L259.215 281.017L259.597 280.442L261.239 280.56L261.735 280.101L262.995 278.421L263.074 278.229L263.339 276.893L263.453 276.624L263.569 276.436L263.645 276.359L263.797 276.242L263.645 275.976L263.415 275.747H263.301L263.07 274.869L262.575 273.76L262.462 273.189L262.65 272.807L263.569 271.547L263.952 271.202H264.255L265.515 271.509L265.897 271.395L267.692 270.134L268.114 269.98L268.454 270.134L268.723 270.174L269.449 269.56L269.715 269.37L270.404 269.294L271.664 268.875L273.305 268.645L274.87 268.149H275.71L277.812 268.72L278.383 269.14L278.615 268.796L278.995 269.065L279.835 269.178L280.255 269.409L280.675 269.065L282.012 268.338L282.622 268.187L283.002 267.804L284.037 266.162L284.494 265.781L284.531 265.628L285.102 264.752L285.334 264.18L285.217 263.873L284.262 263.108L283.997 262.958L283.805 262.69L283.729 262.038L283.691 261.773L283.347 260.665L283.805 260.857L284.149 261.43L284.608 262.538L285.027 262.878L285.409 263.147L285.754 263.032L285.867 262.92L285.905 262.765L286.479 261.85L286.669 261.618L286.897 261.466L287.472 261.236L287.697 261.046L287.929 260.513L288.119 259.863L288.386 259.597L288.769 260.168L287.358 262.27L286.974 262.613V263.032L286.556 263.987L284.876 266.813L284.569 267.577L284.682 268.187L284.914 268.341L285.256 268.38L285.905 268.341L286.174 268.417L286.594 268.837L286.82 268.989L287.509 268.875L287.815 268.341L288.044 267.729L288.581 267.464L290.411 267.309L293.351 268.455L294.648 268.645L295.985 268.38L296.329 268.187L297.018 267.729L297.243 267.46L297.512 266.89L297.475 266.621L297.324 266.279L297.243 265.515L297.475 263.567L297.36 263.26L296.215 261.735V260.551L296.598 259.597L297.243 258.946L297.971 258.72L298.66 258.221L299.193 257.038L299.462 255.739L299.345 254.786L298.698 255.167L298.01 255.397L297.475 255.243L297.206 254.479L297.36 253.755L297.78 253.066L298.66 252.035L297.665 251.844L296.291 252.035L295.337 251.615L295.565 249.594L295.795 249.287L296.215 248.56L296.447 247.835L296.063 247.492L295.909 247.415L295.757 247.224L295.526 246.995L294.765 246.805L294.611 246.575L294.648 243.98L294.343 243.445L293.006 243.1L292.398 242.718L291.938 242.223L291.747 241.727L291.823 241.496L292.243 240.696L292.36 240.543L292.663 240.696L292.701 241.038L292.549 241.918L292.818 242.451L294.688 243.369L295.106 243.828L295.221 244.172V244.629L295.3 245.47L295.526 246.155L295.833 246.347L296.215 246.462L296.635 246.843L297.092 247.989L296.979 249.057L296.14 250.929L296.598 251.424L297.17 251.501L298.505 251.273L299.345 251.387L299.537 251.693L299.308 252.152L298.391 253.526L298.278 254.097L298.584 254.479L300.108 254.747L300.416 255.204L300.453 255.856L300.302 256.733L299.65 258.297L298.848 259.594L298.278 260.97L298.391 262.803L298.698 263.567L299.042 264.176L299.308 264.828L299.424 265.667L299.575 266.393L299.957 267.27L300.453 268.035L300.873 268.532L301.368 268.758L303.241 269.14L303.737 269.485L304.157 271.089L304.577 271.547L305.303 270.631L305.607 270.594L306.219 270.362L306.564 270.325L306.867 270.174L307.366 269.56L307.707 269.446L307.861 269.56L308.319 270.325L310.343 271.432L312.558 271.127L316.644 268.796L317.37 268.95L318.21 268.532L319.008 267.918L319.734 267.577L319.391 268.3L318.971 268.72L318.513 269.065L318.055 269.56L317.521 269.905L316.107 270.059L315.536 270.438L313.398 272.236L312.558 273.377L313.132 274.18L312.289 275.061L311.108 275.556L309.811 275.671L308.547 275.364L306.908 274.297L303.586 273.533H302.972L301.217 273.839L298.621 273.264H296.023L295.603 273.112L293.848 272.043L292.818 271.739L287.509 272.155L287.052 271.929L286.249 271.051L285.292 270.287L285.791 271.315L289.341 274.944L289.762 275.096L289.991 275.364L290.676 277.198L290.639 275.822L290.676 275.402L290.793 275.059L290.982 274.831L291.403 274.334L291.899 274.105L292.587 274.142L293.275 274.334L297.512 276.091L298.848 276.319L299.996 276.204L300.49 276.396L301.865 278.266L302.133 278.801L301.903 278.955H301.483L301.1 279.031L299.499 280.521L299.23 280.711L296.938 281.13L295.258 280.748L294.611 280.824L294.115 281.055L293.503 281.513L293.119 282.121L293.275 282.81L293.695 283.268L294.154 283.575L294.688 283.763L296.598 283.843L296.825 283.651L296.749 283.155L296.635 282.583L296.786 282.046L299.308 283.995L300.836 284.797L301.788 284.415L302.629 285.142L303.774 286.666L304.157 286.897L304.577 286.973L305.951 287.468L306.715 287.624L307.517 287.543L308.432 287.123L308.357 287.543L308.166 287.812L307.592 288.347L307.746 288.615L307.861 289.225L307.976 289.568L308.012 289.761L308.089 290.333L308.127 290.445L308.281 290.526L308.664 290.485L309.348 290.946L315.458 292.701L316.681 292.509L316.909 292.356L317.407 291.824L317.711 291.592L318.017 291.479L321.835 290.79L322.98 290.219L323.439 290.106L324.165 290.181L325.807 290.753L326.073 290.79L326.762 290.753L326.992 290.79L327.257 290.982L327.487 291.022H327.907L331.112 290.485L331.535 289.913L331.266 288.652L333.061 289.53L333.711 289.988L334.014 290.102H334.321L334.703 289.913L334.933 289.874L335.888 289.379L336.496 288.271L336.996 287.048L337.68 286.285L337.377 289.341L337.26 289.874L337.033 290.445L339.436 290.102L340.125 290.333L340.2 290.828L339.86 291.441L339.36 291.936L339.553 291.975H339.705L339.86 292.012L340.012 292.244L340.621 291.362L341.422 291.516L342.224 292.244L343.14 293.541L343.409 293.769H345.278L345.928 294.037H346.236L345.622 293.121L345.928 292.584L346.694 292.356L347.494 292.319V291.975L346.694 291.441L346.731 290.79L347.264 290.142L347.914 289.568L348.681 289.302L349.174 289.761L350.091 291.516L350.242 292.202L349.978 292.701L349.633 293.158L349.671 293.654L350.053 295.146L350.091 295.447L349.863 295.831L349.709 296.251L349.746 296.595L350.091 296.747L350.015 296.939L349.746 297.434L349.174 298.198L349.558 298.466L349.784 298.349L350.015 298.085L350.359 297.929L351.122 297.854L352.841 298.312L353.413 298.618L353.946 299.114L353.413 299.42L352.384 299.686L351.884 299.954L351.427 299.765L351.35 300.568L351.427 301.596L351.389 302.093L350.741 302.206L350.398 302.168L350.242 301.941L350.129 301.673L349.861 301.445L349.519 301.29L349.214 301.213L348.906 301.253L348.564 301.407L347.953 301.827L347.227 302.743L346.5 302.97L346.196 303.009L345.816 302.933L345.239 302.513L345.014 302.436L344.556 302.63L343.295 303.469L342.839 303.658L341.918 304.688L341.767 304.956L340.658 305.413L338.446 306.791L337.377 306.905L336.308 306.293L335.81 305.645L335.542 305.453L335.277 305.682L335.236 306.102L335.468 306.368L335.773 306.522L335.925 306.673L335.773 307.211L335.39 307.515L328.479 310.722L326.416 312.135L325.502 313.091L325.273 313.394L325.156 313.624L325.082 314.006L325.119 314.351L325.236 314.771L325.194 315.112L324.775 315.266L324.434 315.229L323.859 314.999L323.552 314.961L323.095 315.037L322.867 315.266L322.675 315.573L322.409 315.876L321.989 316.219L321.531 316.488L320.957 316.679L320.231 316.754L319.66 316.909L316.069 319.656L315.153 320.613L314.733 321.756L314.849 322.37L315.69 324.696L316.376 324.812L317.445 325.345L318.093 325.573H320.271L320.73 325.308L321.797 324.163L322.292 323.818L322.944 323.703L327.487 324.087L328.747 324.583L329.856 325.308L331.801 327.027L332.069 327.178L332.604 327.408L332.873 327.598L333.215 328.249L333.481 328.63L334.245 329.089L335.316 330.425L335.773 330.845L337.147 331.227L337.797 331.571L338.063 332.18L338.368 332.6L339.057 332.411L340.125 331.759L341.27 331.339L342.532 331.15L343.064 331.378L344.745 332.907L346.845 334.242L347.609 335.237L348.104 336.993L348.221 338.101L348.334 338.483L348.869 339.551L348.945 339.819L349.061 340.504L349.402 342.184V343.178L349.289 344.018L349.101 344.743L348.754 345.28L347.571 345.698L347.151 346.233L346.882 346.997L346.694 347.875L346.616 348.102L346.5 348.256L346.274 348.446L346.539 348.984L346.694 349.63L346.882 350.814L347.189 351.692L347.227 352.15L347.114 352.839L346.845 353.296L346.462 353.754L346.196 354.289L346.236 354.938L346.5 355.166L347.494 355.358L347.914 355.51L347.303 355.779L345.739 355.816L345.317 355.967L345.089 356.123L344.745 356.16L344.097 356.123L343.829 356.199L343.14 356.694L342.875 356.807L341.955 357.001L341.843 356.888L341.881 357.383L342.111 357.878L345.356 360.168L345.739 360.588L346.274 361.008L346.92 360.971L347.571 360.78L348.104 360.743L348.449 361.048L349.364 362.23L349.558 362.613L349.746 363.414L350.167 363.795L352.458 364.867L353.069 365.018L355.094 365.056L355.437 365.018L356.046 364.829H356.428L358.339 365.59L359.025 365.707L359.637 365.632L362.922 364.064L363.605 363.95L364.025 363.795L365.06 363.07L365.403 362.73L365.823 362.002L366.089 361.351L366.47 360.894L367.924 360.588L368.306 360.285L368.952 359.252L369.029 359.101V358.832L369.184 358.681L369.221 358.566L369.565 358.605H369.985L370.671 358.681L370.939 358.605L371.245 358.067L372.43 354.977L373.458 353.184L373.766 352.801L373.918 352.494L375.139 350.777H375.253L375.291 350.814V350.928L375.328 351.045L376.093 350.242L377.087 349.822L379.532 349.286L380.674 348.79L382.812 347.342L383.92 346.922L386.021 347.302L386.516 347.073L386.936 346.766L387.93 346.997L388.464 346.882L388.696 346.69L388.884 346.421L389.116 346.194L389.457 346.001L389.763 345.965L390.795 346.001L391.404 346.233L391.788 346.766L392.056 347.342L392.359 347.799L393.656 347.987L394.496 346.653L395.146 344.783L395.911 343.406L396.445 343.138L397.742 342.835L398.276 342.338L398.964 340.924L399.498 340.542L400.263 340.999L400.455 340.811L400.758 340.579L400.874 340.391L402.325 341.536L402.135 340.239L402.174 339.663L402.517 339.169L402.975 338.976L403.967 339.055L404.387 338.862V338.598L403.509 338.214L403.319 338.021L403.202 337.601L403.278 337.259L403.432 336.916L403.509 336.419L403.777 336.076L405.377 334.777L406.487 334.242L407.747 333.977H409.082L410.383 334.204L412.596 335.082L414.583 336.342L414.923 336.687L415.843 337.794L416.033 338.214L416.301 339.169L416.91 339.475L419.01 339.093L421.34 339.244L421.799 338.749L422.333 337.756L423.021 337.068L423.975 337.488V337.182L425.692 338.253L428.404 338.862L429.014 338.71L429.129 338.48L429.321 337.756L429.434 337.488L429.741 337.296L430.086 337.22L432.794 337.107L434.97 336.304L435.391 335.922L435.468 335.274L435.087 334.624L434.247 333.709L434.054 332.792V331.876L434.323 329.357L434.549 328.438L434.894 327.56L435.276 326.988L435.545 326.875L436.231 326.837L436.499 326.682L436.688 326.302L436.613 326.11L436.423 325.922L436.306 325.614L436.46 324.737L436.88 324.28L437.453 324.123L438.178 324.241L439.095 324.737L439.438 324.851H439.82L440.812 324.583L441.042 324.123L440.812 323.133L440.278 321.641L439.82 321.108L439.363 320.84L438.867 320.957L438.33 321.528L437.873 321.681L437.376 321.223L436.613 320.231L436.003 320.117L434.206 320.537L433.596 320.383L432.643 319.735L432.068 319.618L431.728 319.735L431.459 320L431.191 320.231H430.807L431.076 319.466L430.846 318.933L430.351 318.778L429.854 319.198L429.472 319.58L425.999 319.543L425.385 319.773L424.739 320.42L423.899 320.957L423.784 321.148L423.364 322.445L422.447 323.628L421.34 323.859L420.157 323.439L417.864 322.061L417.33 321.641L417.102 321.108L417.255 320.344L417.485 319.656L417.406 319.237L416.683 319.161L416.184 319.466L415.764 320.117L415.5 320.916L415.383 321.718L415.306 321.91L414.848 322.558L414.697 322.713L414.278 322.826L414.122 323.095L414.084 323.477L413.97 323.897L413.13 324.775L412.483 325.195L407.099 326.682L405.954 326.568L401.447 323.398L392.701 310.492L390.069 305.3L388.464 300.988L388.159 300.451L387.814 299.954L387.549 299.383L386.442 294.074L386.173 293.389L386.021 292.739L385.869 289.95L385.676 289.226L385.639 288.884L385.676 288.425L385.831 288.005L386.364 287.279L386.479 287.086L387.776 286.477L387.852 286.057L387.893 285.562L388.121 285.179L388.464 284.986L388.541 285.179L388.579 285.481L388.771 285.75L389.153 285.865H389.457L392.321 285.142L393.656 284.3L394.688 283.117L396.483 280.328L397.515 279.26L397.742 278.762L397.898 278.078L397.781 277.695L397.63 277.35L397.515 276.779L397.21 276.128L396.676 275.327L396.445 274.449L397.095 273.609L397.17 274.411L397.477 275.213L397.856 275.822L398.318 276.128L398.695 276.511L398.927 276.662L399.232 276.741L399.728 276.779L399.956 276.856L399.347 278.498L399.154 279.68L399.423 280.673L400.149 281.321L400.758 281.281L401.294 280.824L401.829 280.253L401.715 281.361L401.294 282.084L400.187 283.231L399.308 284.797L399.003 285.562L398.276 286.362L397.436 288.044L395.873 288.884L392.701 289.837L392.854 290.257L392.933 290.445L391.863 291.135L390.908 292.244L390.792 292.664L391.328 292.852L392.472 292.281L393.198 291.747L394.231 291.516L394.954 290.907L396.176 290.485L396.902 289.722L397.667 288.652L399.272 285.368L399.918 284.605L402.82 279.833L403.278 279.375L404.349 278.649L404.806 278.191L405.722 276.893L406.18 276.359L406.756 275.939L410.342 274.105L411.336 273.189L413.781 270.325L414.697 269.598L416.377 268.645L418.629 267.347L419.355 267.384L423.516 266.582L425.692 266.89L426.839 266.621H427.372L428.023 266.89L428.212 267.078L428.368 267.27L428.632 267.804L428.709 267.88L429.052 268.112V268.338L429.014 268.607L428.938 268.796L429.089 269.219L429.129 269.14L429.169 268.875L429.472 268.758L429.778 268.569L429.892 268.72V269.37H430.123L430.312 268.072L430.886 267.078L432.95 264.903L433.827 264.217L434.818 263.756L436.348 263.452L437.607 262.69H439.59L439.82 262.538L440.089 262.231L440.431 261.925L440.929 261.773L441.769 262.038L442.302 262.076L442.798 261.773L443.218 262.076L444.21 262.421L444.672 262.69L445.777 263.987L446.045 264.176V264.978L445.662 266.545L445.091 267.767L444.479 267.498H444.251V267.843L445.012 268.072L445.777 267.347L446.351 266.162L446.579 264.978L446.885 263.911L447.456 262.916L447.876 261.925L447.611 260.896L448.602 260.741L450.206 259.174L451.274 258.795L451.619 258.603L452.613 257.763L452.954 257.573L453.49 257.494L457.002 256.121L458.417 255.016L458.99 254.861L460.018 255.053L461.088 255.587L461.777 256.464L461.66 257.573L462.349 257.266L462.845 256.541L463.647 254.974L466.854 250.43L468.762 248.409L469.794 248.027L473.726 248.75L475.024 248.712L478.308 247.532L481.02 247.989L481.361 247.797L482.125 247.989L483.31 248.447L483.579 248.334L484.381 247.872L484.532 247.72L484.683 247.645L485.678 248.447L486.442 248.75V249.477L485.754 250.891L486.786 250.393L488.425 248.103L489.039 247.49L488.543 246.347L488.387 244.933L488.581 243.596L489.152 242.567L489.724 242.185L490.412 241.841L491.063 241.421L491.483 240.77L491.558 239.854L491.289 239.359L490.794 239.128L490.261 239.091L489.115 239.283L488.543 239.208L488.161 238.75L488.236 238.023L488.619 237.221L489.534 235.961L490.298 234.588L490.489 233.328L490.374 230.119L490.794 228.553L491.366 226.987L492.131 225.69L493.163 224.962L499.538 224.085L500.303 223.743L500.875 223.245L502.02 221.946L502.592 221.526L503.05 221.45L504.12 221.871L504.771 221.795L505.075 221.069L505.343 219.2L505.875 217.138L506.64 215.379L507.673 214.08L509.084 213.509L514.01 213.699L515.652 214.807L516.263 214.959L516.875 214.92L518.097 214.579L522.641 214.425L523.25 214.539L524.279 215.227L524.816 215.496L525.501 215.456L526.803 215.076L527.487 215.302L528.366 215.456L530.201 215.076L531.117 215.151L534.17 215.953L535.165 215.761L535.926 214.999L536.424 213.854L536.652 212.556L536.615 212.249L536.463 211.639V211.332L536.538 210.912L536.845 210.225L536.958 209.882L537.035 209.195L536.996 208.737L536.576 207.743L536.27 207.247L536.043 206.978L535.963 206.752L536.232 206.332L536.576 206.101L538.257 205.798L538.445 205.835L538.525 205.756L538.562 205.336L538.101 203.925L538.18 202.854L538.562 201.977L540.087 199.116L540.663 198.428L542.112 197.319L542.645 196.709L543.028 195.869L543.103 194.991L542.645 194.227L541.997 194.073L540.395 194.647L539.781 194.723L537.681 193.387L539.743 191.632L540.28 190.944L540.966 190.255L540.663 189.876L540.432 189.262L540.126 188.08L539.173 185.978L538.865 185.714L538.562 185.329L538.484 184.605L538.638 184.564L538.904 184.605L539.21 184.488L539.324 184.11L539.285 183.955L539.21 183.765L539.133 183.497L539.097 183.157L538.865 181.969L538.257 181.166L537.455 180.712L533.825 180.25L533.216 180.481L532.031 180.558L532.338 179.411L534.208 173.228L534.476 172.842L535.241 172.539L535.468 172.12L535.661 171.586L535.926 171.087L536.538 170.401L537.186 170.058L537.912 170.019L541.272 171.355L542.494 171.2L543.83 170.134L544.402 169.37L544.822 168.453L544.746 167.575L544.174 166.812L543.41 166.697L542.837 167.268L542.301 167.957L541.655 168.302L541.272 168.151L540.7 167.386L540.395 167.117L540.05 167.038L538.982 167.193L536.576 166.66L535.85 166.352L535.506 165.895L535.278 165.245L534.858 164.405L534.321 163.871L533.713 163.451L533.291 162.876L533.523 160.549L534.056 160.166L535.581 160.281L538.101 159.403H539.02L539.935 159.558L540.395 159.516L540.738 159.289L540.89 158.831L540.815 157.343L540.966 156.694L541.617 155.584L542.457 154.786L544.25 153.562L544.824 152.914L545.812 151.309L546.388 150.813L547.114 150.39L547.342 149.974L547.38 148.294L547.799 146.727L547.875 145.887L547.531 145.161ZM302.285 288.195L298.315 287.24L288.539 284.835L287.321 284.108L286.594 283.192L286.136 281.895L285.637 280.022L285.102 279.795V280.597L285.371 281.701L285.599 282.39L286.439 283.726L287.394 284.605L292.167 286.439L303.241 288.803L304.502 289.417L305.187 289.568L304.805 289.265L302.285 288.195ZM332.258 294.954L331.876 294.419L330.503 294.532L330.197 294.226L329.894 293.769L329.167 293.844L327.907 294.419L326.95 293.692L326.035 293.654L323.935 294.074L319.582 293.466L319.314 293.158H319.162L318.933 293.426L331.725 295.528L332.258 294.954ZM236.88 309.5L236.385 309.92L235.503 310.874L235.008 311.294L234.586 311.411L234.129 311.487L233.748 311.639L233.596 312.059L233.365 312.479L232.755 312.975L231.227 313.814L233.558 312.824L236.611 310.571L243.599 303.927L241.652 305.071L236.88 309.5Z" fill="white" fill-opacity="0.149" stroke="white" stroke-opacity="0.502" stroke-width="0.75" stroke-miterlimit="1.414" stroke-linejoin="round"/>
</svg>
