<svg width="53" height="52" viewBox="0 0 53 52" fill="none" xmlns="http://www.w3.org/2000/svg">
<g opacity="0.7">
<g opacity="0.7">
<path opacity="0.7" d="M17.6549 16.3226C25.012 8.96366 45.8938 -2.72568 50.7761 2.15755C55.6575 7.03893 43.4853 27.437 36.1273 34.795" stroke="white" stroke-width="1.99936"/>
</g>
<g opacity="0.7">
<path opacity="0.7" d="M41.5348 27.8036C41.5348 27.8036 40.3039 45.2709 29.7939 50.3955C29.7939 50.3955 21.0381 39.3364 17.0744 35.3727C13.1116 31.4108 21.0381 39.2728 16.5566 34.7913C12.0733 30.3088 2 22.6025 2 22.6025C7.42315 12.2464 24.5384 10.8082 24.5384 10.8082" stroke="white" stroke-width="1.99936"/>
</g>
<g opacity="0.7">
<path opacity="0.7" d="M21.427 42.0361C20.1969 43.2679 26.6216 53.9935 12.5395 39.9114C-1.54265 25.8283 9.18295 32.253 10.4139 31.023" stroke="white" stroke-width="1.99936"/>
</g>
<g opacity="0.7">
<path opacity="0.7" d="M37.9952 2.95905L49.653 14.6159" stroke="white" stroke-width="1.99936"/>
</g>
</g>
<path d="M31.978 28.4002C29.7771 30.6021 26.2088 30.6013 24.0069 28.3991C21.8049 26.1982 21.8058 22.6299 24.0074 20.4286C26.2089 18.2273 32.7665 15.2379 34.9678 17.4395C37.1691 19.641 34.1802 26.1982 31.978 28.4002Z" stroke="#4ED401" stroke-width="1.99936"/>
</svg>
